<?xml version="1.0" encoding="UTF-8"?>
<svg version="1.1" xmlns="http://www.w3.org/2000/svg" width="1080" height="1080">
<path d="M0 0 C356.4 0 712.8 0 1080 0 C1080 356.4 1080 712.8 1080 1080 C723.6 1080 367.2 1080 0 1080 C0 723.6 0 367.2 0 0 Z " fill="#FEFEFE" transform="translate(0,0)"/>
<path d="M0 0 C1.32 0 2.64 0 4 0 C4 1.98 4 3.96 4 6 C7.3 6 10.6 6 14 6 C14 4.35 14 2.7 14 1 C15.65614657 0.61781233 17.32457024 0.28604898 19 0 C20 1 20 1 20 6 C23.3 6 26.6 6 30 6 C30 4.35 30 2.7 30 1 C31.65 0.67 33.3 0.34 35 0 C35 1.98 35 3.96 35 6 C38.3 6 41.6 6 45 6 C45 4.35 45 2.7 45 1 C46.65614657 0.61781233 48.32457024 0.28604898 50 0 C51 1 51 1 51.0625 3.5625 C51.041875 4.366875 51.02125 5.17125 51 6 C52.051875 6.0825 53.10375 6.165 54.1875 6.25 C58.33020342 7.06495805 60.01152441 8.09690943 63 11 C65.07500407 14.1125061 65.25569854 14.83714021 65.29052734 18.3762207 C65.30328705 19.2575618 65.31604675 20.13890289 65.32919312 21.04695129 C65.33141876 21.99696518 65.33364441 22.94697906 65.3359375 23.92578125 C65.3459227 25.39630196 65.3459227 25.39630196 65.35610962 26.89653015 C65.36623843 28.97193525 65.37092657 31.04737294 65.37060547 33.12280273 C65.37496914 36.29010131 65.41126048 39.45599578 65.44921875 42.62304688 C65.45508883 44.64062024 65.45905694 46.65820022 65.4609375 48.67578125 C65.47530853 49.61972244 65.48967957 50.56366364 65.50448608 51.53620911 C65.46544075 57.18874015 64.86117253 60.56458613 61 65 C57.46648031 67.35567979 55.96031356 67.26234471 51.77197266 67.29052734 C49.84449692 67.3096669 49.84449692 67.3096669 47.87808228 67.32919312 C46.47341055 67.33225074 45.0687368 67.33447852 43.6640625 67.3359375 C42.22301094 67.34236504 40.78196068 67.34909336 39.34091187 67.35610962 C36.31969173 67.36808562 33.29858595 67.37179016 30.27734375 67.37060547 C26.41128026 67.37040235 22.54595247 67.39769461 18.68006325 67.43214989 C15.7031418 67.45442026 12.72639731 67.45844297 9.74940109 67.45738602 C8.32447145 67.45974216 6.89953694 67.46856658 5.47468948 67.48405075 C3.4788285 67.50370784 1.48275153 67.49535089 -0.51318359 67.48583984 C-1.64774994 67.48868988 -2.78231628 67.49153992 -3.95126343 67.49447632 C-7.67290608 66.89086098 -9.31661849 65.595046 -12 63 C-14.71946764 58.48383305 -14.32322219 53.43500837 -14.3359375 48.31640625 C-14.3425943 47.3832811 -14.3492511 46.45015594 -14.35610962 45.48875427 C-14.36621379 43.51945969 -14.37092733 41.55013102 -14.37060547 39.58081055 C-14.37498022 36.57608442 -14.41132768 33.57282603 -14.44921875 30.56835938 C-14.45508714 28.65104667 -14.45905639 26.73372701 -14.4609375 24.81640625 C-14.47530853 23.92248672 -14.48967957 23.0285672 -14.50448608 22.1075592 C-14.46416403 16.57489153 -13.71662123 13.37387545 -10 9 C-6.56397188 6.42297891 -5.39927132 6 -1 6 C-1.020625 5.195625 -1.04125 4.39125 -1.0625 3.5625 C-1 1 -1 1 0 0 Z " fill="#F7FAFB" transform="translate(231,444)"/>
<path d="M0 0 C1.32 0 2.64 0 4 0 C4 1.98 4 3.96 4 6 C7.3 6 10.6 6 14 6 C14 4.35 14 2.7 14 1 C15.65614657 0.61781233 17.32457024 0.28604898 19 0 C20 1 20 1 20 6 C23.3 6 26.6 6 30 6 C30 4.35 30 2.7 30 1 C31.65 0.67 33.3 0.34 35 0 C35 1.98 35 3.96 35 6 C38.3 6 41.6 6 45 6 C45 4.35 45 2.7 45 1 C46.65614657 0.61781233 48.32457024 0.28604898 50 0 C51 1 51 1 51.0625 3.5625 C51.041875 4.366875 51.02125 5.17125 51 6 C52.051875 6.0825 53.10375 6.165 54.1875 6.25 C58.33020342 7.06495805 60.01152441 8.09690943 63 11 C65.07500407 14.1125061 65.25569854 14.83714021 65.29052734 18.3762207 C65.30328705 19.2575618 65.31604675 20.13890289 65.32919312 21.04695129 C65.33141876 21.99696518 65.33364441 22.94697906 65.3359375 23.92578125 C65.3459227 25.39630196 65.3459227 25.39630196 65.35610962 26.89653015 C65.36623843 28.97193525 65.37092657 31.04737294 65.37060547 33.12280273 C65.37496914 36.29010131 65.41126048 39.45599578 65.44921875 42.62304688 C65.45508883 44.64062024 65.45905694 46.65820022 65.4609375 48.67578125 C65.47530853 49.61972244 65.48967957 50.56366364 65.50448608 51.53620911 C65.46544075 57.18874015 64.86117253 60.56458613 61 65 C57.46648031 67.35567979 55.96031356 67.26234471 51.77197266 67.29052734 C49.84449692 67.3096669 49.84449692 67.3096669 47.87808228 67.32919312 C46.47341055 67.33225074 45.0687368 67.33447852 43.6640625 67.3359375 C42.22301094 67.34236504 40.78196068 67.34909336 39.34091187 67.35610962 C36.31969173 67.36808562 33.29858595 67.37179016 30.27734375 67.37060547 C26.41128026 67.37040235 22.54595247 67.39769461 18.68006325 67.43214989 C15.7031418 67.45442026 12.72639731 67.45844297 9.74940109 67.45738602 C8.32447145 67.45974216 6.89953694 67.46856658 5.47468948 67.48405075 C3.4788285 67.50370784 1.48275153 67.49535089 -0.51318359 67.48583984 C-1.64774994 67.48868988 -2.78231628 67.49153992 -3.95126343 67.49447632 C-7.67290608 66.89086098 -9.31661849 65.595046 -12 63 C-14.71946764 58.48383305 -14.32322219 53.43500837 -14.3359375 48.31640625 C-14.3425943 47.3832811 -14.3492511 46.45015594 -14.35610962 45.48875427 C-14.36621379 43.51945969 -14.37092733 41.55013102 -14.37060547 39.58081055 C-14.37498022 36.57608442 -14.41132768 33.57282603 -14.44921875 30.56835938 C-14.45508714 28.65104667 -14.45905639 26.73372701 -14.4609375 24.81640625 C-14.47530853 23.92248672 -14.48967957 23.0285672 -14.50448608 22.1075592 C-14.46416403 16.57489153 -13.71662123 13.37387545 -10 9 C-6.56397188 6.42297891 -5.39927132 6 -1 6 C-1.020625 5.195625 -1.04125 4.39125 -1.0625 3.5625 C-1 1 -1 1 0 0 Z M-12 22 C-15.9478038 55.56434372 -15.9478038 55.56434372 -7 65 C-4.33177912 66.33411044 -2.25647925 66.15665847 0.73144531 66.19287109 C2.5340683 66.21696548 2.5340683 66.21696548 4.37310791 66.24154663 C9.87650398 66.28592269 15.3797683 66.32750845 20.88330078 66.35009766 C23.78759352 66.36342345 26.69118135 66.39124891 29.59521484 66.43212891 C33.10541535 66.48154013 36.61497775 66.50622899 40.12551117 66.51332474 C42.10752523 66.52327139 44.08936959 66.55749673 46.07110596 66.59213257 C53.43175256 66.76132387 53.43175256 66.76132387 59.80371094 63.59228516 C69.9680468 51.59529559 63 45.03721179 63 22 C38.25 22 13.5 22 -12 22 Z " fill="#1DB2C7" transform="translate(231,444)"/>
<path d="M0 0 C4.05523038 2.85709413 7.51585617 6.46921234 9.75 10.9375 C10.4830431 18.07565737 10.06404113 24.03700504 5.75 29.9375 C1.62734279 33.85905198 -1.5628312 35.08270926 -7.1875 35.125 C-8.04214844 35.13917969 -8.89679688 35.15335937 -9.77734375 35.16796875 C-12.38909303 34.92453556 -14.00500652 34.2553268 -16.25 32.9375 C-16.21519531 33.84113281 -16.18039062 34.74476563 -16.14453125 35.67578125 C-16.11746094 36.85527344 -16.09039062 38.03476562 -16.0625 39.25 C-16.02769531 40.42175781 -15.99289062 41.59351563 -15.95703125 42.80078125 C-16.25 45.9375 -16.25 45.9375 -17.6015625 47.8671875 C-19.25 48.9375 -19.25 48.9375 -21.8125 48.75 C-24.25 47.9375 -24.25 47.9375 -26.25 45.9375 C-26.4989191 43.46169779 -26.62634961 41.10167494 -26.65625 38.62109375 C-26.66765015 37.89060318 -26.67905029 37.16011261 -26.6907959 36.40748596 C-26.70970907 34.85659581 -26.72276916 33.30562503 -26.73046875 31.75463867 C-26.74973565 29.40720765 -26.81167874 27.06339368 -26.875 24.71679688 C-26.98356837 17.03219841 -26.84979447 10.82544557 -21.86230469 4.54345703 C-15.56832421 -1.72574399 -8.43037634 -2.75608457 0 0 Z " fill="#468BDB" transform="translate(428.25,462.0625)"/>
<path d="M0 0 C5.04080509 2.06353199 8.84191134 5.06573866 11.5625 9.8125 C13.89178458 15.40064604 13.87594631 20.60267327 11.8125 26.25 C8.95858942 30.58007123 5.8735344 34.06274836 1 36 C-1.7265625 36.23046875 -1.7265625 36.23046875 -4.625 36.1875 C-5.58664062 36.18105469 -6.54828125 36.17460937 -7.5390625 36.16796875 C-10 36 -10 36 -12 35 C-12.02578125 35.83144531 -12.0515625 36.66289062 -12.078125 37.51953125 C-12.13484375 38.60621094 -12.1915625 39.69289063 -12.25 40.8125 C-12.31960938 42.43091797 -12.31960938 42.43091797 -12.390625 44.08203125 C-13 47 -13 47 -14.87890625 48.90234375 C-17 50 -17 50 -19.6875 49.75 C-22 49 -22 49 -23 48 C-23.13828388 45.40388704 -23.21314425 42.83630207 -23.23828125 40.23828125 C-23.246353 39.45486862 -23.25442474 38.67145599 -23.26274109 37.86430359 C-23.27660112 36.20065536 -23.28731465 34.53697846 -23.29516602 32.87329102 C-23.31231318 30.34009878 -23.35617147 27.80823403 -23.40039062 25.27539062 C-23.41052317 23.65886377 -23.41903751 22.0423258 -23.42578125 20.42578125 C-23.44328934 19.67242996 -23.46079742 18.91907867 -23.47883606 18.14289856 C-23.4542477 12.1162119 -21.55663208 8.57498112 -17.3671875 4.35546875 C-11.51431184 -0.22570879 -7.40975704 -1.00686672 0 0 Z " fill="#478CDD" transform="translate(385,461)"/>
<path d="M0 0 C2.75 -0.375 2.75 -0.375 6 0 C9.4428272 4.3756948 11.56469162 9.17550101 13.70703125 14.28515625 C14.03668381 15.06386581 14.36633636 15.84257538 14.70597839 16.6448822 C15.39580052 18.28145749 16.08221749 19.91947185 16.76538086 21.55883789 C17.81325382 24.06430239 18.88167977 26.56034157 19.95117188 29.05664062 C20.62106588 30.65311176 21.28972884 32.25010013 21.95703125 33.84765625 C22.27775101 34.59048355 22.59847076 35.33331085 22.9289093 36.09864807 C24.56209121 40.08112201 25.58732854 42.8807422 24 47 C22 49 22 49 19.5625 49.375 C17 49 17 49 15.3125 47.3125 C14 45 14 45 12 40 C6.06 39.67 0.12 39.34 -6 39 C-6.66 41.31 -7.32 43.62 -8 46 C-9.3125 47.9375 -9.3125 47.9375 -11 49 C-13.5625 49.3125 -13.5625 49.3125 -16 49 C-18 47 -18 47 -18.29174805 43.8059082 C-17.97529401 39.67770573 -17.00591436 36.88058141 -15.33203125 33.10546875 C-14.91699593 32.15707878 -14.91699593 32.15707878 -14.49357605 31.18952942 C-13.61177804 29.18334659 -12.71227164 27.18567531 -11.8125 25.1875 C-11.22739418 23.85921739 -10.64340055 22.53044427 -10.06054688 21.20117188 C-6.90169054 14.03565216 -3.59504064 6.95890547 0 0 Z " fill="#478CDD" transform="translate(335,448)"/>
<path d="M0 0 C4.61237664 2.61224322 8.1307412 5.9230726 9.65234375 11.12109375 C10.50145989 16.99212536 10.5616943 22.35639162 7.58984375 27.62109375 C4.90029692 31.20715618 2.01077424 33.85778057 -2.34765625 35.12109375 C-8.0157678 35.85246298 -12.68215515 35.9538443 -17.84765625 33.37109375 C-18.67265625 32.62859375 -19.49765625 31.88609375 -20.34765625 31.12109375 C-21.09015625 30.60546875 -21.83265625 30.08984375 -22.59765625 29.55859375 C-25.84247994 25.0390179 -26.5615942 19.33016293 -26.1953125 13.8359375 C-24.93623554 7.61249996 -21.80357668 3.87532263 -16.72265625 0.24609375 C-11.1727818 -1.6038644 -5.56459818 -2.08325223 0 0 Z " fill="#478CDC" transform="translate(467.34765625,461.87890625)"/>
<path d="M0 0 C0.99 0.33 1.98 0.66 3 1 C3.66 0.67 4.32 0.34 5 0 C11.34829 -0.82598569 15.91494998 -0.12531379 21.30859375 3.3203125 C25.26647198 7.25076894 26.18345807 11.12153293 26.36328125 16.546875 C26.36196083 18.6146522 26.34460448 20.68247163 26.3125 22.75 C26.31572266 23.80316406 26.31894531 24.85632813 26.32226562 25.94140625 C26.26725618 33.73274382 26.26725618 33.73274382 24 36 C20.4375 35.75 20.4375 35.75 17 35 C15.8260447 32.65208941 15.83078388 31.11746336 15.75390625 28.5 C15.72103516 27.613125 15.68816406 26.72625 15.65429688 25.8125 C15.59310298 23.9376233 15.53581057 22.06261519 15.48242188 20.1875 C15.44826172 19.300625 15.41410156 18.41375 15.37890625 17.5 C15.3538501 16.6853125 15.32879395 15.870625 15.30297852 15.03125 C15.17248872 12.77578696 15.17248872 12.77578696 13 11 C10.28545044 10.67247766 7.74769241 10.8691575 5 11 C3.43296455 12.56703545 3.83638347 14.15722016 3.7890625 16.33203125 C3.76070313 17.21310547 3.73234375 18.09417969 3.703125 19.00195312 C3.65137278 20.86373937 3.60700499 22.7257467 3.5703125 24.58789062 C3.52390625 25.91530273 3.52390625 25.91530273 3.4765625 27.26953125 C3.45674316 28.08010986 3.43692383 28.89068848 3.41650391 29.72583008 C2.90388049 32.52482606 1.93670817 33.93799594 0 36 C-2.79722236 36.48951391 -4.25882884 36.50224828 -6.63134766 34.89453125 C-8.67951478 32.05939446 -8.38884529 29.71415749 -8.3984375 26.25 C-8.40130768 25.59547852 -8.40417786 24.94095703 -8.40713501 24.26660156 C-8.40917368 22.88475681 -8.40365746 21.50288307 -8.39111328 20.12109375 C-8.37505436 18.0071555 -8.39096601 15.89512887 -8.41015625 13.78125 C-8.40817378 12.43749578 -8.40433002 11.09374276 -8.3984375 9.75 C-8.39505371 8.52796875 -8.39166992 7.3059375 -8.38818359 6.046875 C-8 3 -8 3 -6.63134766 1.09375 C-4.33150489 -0.44819786 -2.71435673 -0.27143567 0 0 Z " fill="#478CDD" transform="translate(507,461)"/>
<path d="M0 0 C4.26212308 1.6850254 5.57091284 5.15495447 7.6875 9.0625 C8.15800781 9.8978125 8.62851562 10.733125 9.11328125 11.59375 C10.31999606 13.74204228 11.51008115 15.89805343 12.6875 18.0625 C13.24179687 16.93070312 13.79609375 15.79890625 14.3671875 14.6328125 C15.0987463 13.15093697 15.83052878 11.66917185 16.5625 10.1875 C16.92730469 9.44113281 17.29210937 8.69476563 17.66796875 7.92578125 C18.02246094 7.21035156 18.37695312 6.49492187 18.7421875 5.7578125 C19.06687012 5.09797363 19.39155273 4.43813477 19.72607422 3.75830078 C20.6875 2.0625 20.6875 2.0625 22.6875 0.0625 C25.98464793 0.39221479 27.3101839 0.6851839 29.6875 3.0625 C29.41413434 8.62538449 26.97104723 13.3815361 24.6875 18.36328125 C24.29175781 19.24026169 23.89601563 20.11724213 23.48828125 21.02079773 C22.65434952 22.86538048 21.81704125 24.70843999 20.9765625 26.55004883 C19.68535498 29.37970077 18.40431475 32.21378228 17.125 35.04882812 C16.31308474 36.8414108 15.50060458 38.63373774 14.6875 40.42578125 C14.30207031 41.27674881 13.91664063 42.12771637 13.51953125 43.00447083 C13.16246094 43.78585922 12.80539062 44.56724762 12.4375 45.37231445 C12.12296875 46.06259232 11.8084375 46.75287018 11.484375 47.46406555 C10.6875 49.0625 10.6875 49.0625 9.6875 50.0625 C6.8915342 50.35681219 5.25037181 50.40022308 2.8125 48.9375 C1.6875 47.0625 1.6875 47.0625 1.75 44.4375 C2.76189912 40.79466318 4.24710017 37.72169968 6.04296875 34.40625 C7.71835701 28.31392907 2.39344184 21.72334079 -0.5 16.5625 C-1.21446289 15.31919922 -1.21446289 15.31919922 -1.94335938 14.05078125 C-5.32979962 7.88559771 -5.32979962 7.88559771 -5.23828125 3.53125 C-4.04751474 0.35587264 -3.33053469 0.09001445 0 0 Z " fill="#468BDC" transform="translate(580.3125,460.9375)"/>
<path d="M0 0 C1.32 0 2.64 0 4 0 C4 1.98 4 3.96 4 6 C7.3 6 10.6 6 14 6 C14 4.35 14 2.7 14 1 C15.65614657 0.61781233 17.32457024 0.28604898 19 0 C20 1 20 1 20 6 C23.3 6 26.6 6 30 6 C30 4.35 30 2.7 30 1 C31.65 0.67 33.3 0.34 35 0 C35 1.98 35 3.96 35 6 C38.3 6 41.6 6 45 6 C45 4.35 45 2.7 45 1 C46.65614657 0.61781233 48.32457024 0.28604898 50 0 C51 1 51 1 51.0625 3.5625 C51.041875 4.366875 51.02125 5.17125 51 6 C52.051875 6.0825 53.10375 6.165 54.1875 6.25 C58.35084439 7.06901857 60.1090428 7.93898649 63 11 C63.8125 13.75 63.8125 13.75 64 16 C63.401875 15.21625 62.80375 14.4325 62.1875 13.625 C58.77575813 9.53090976 56.14298383 8.68573118 51 8 C51 10.64 51 13.28 51 16 C49.34385343 16.38218767 47.67542976 16.71395102 46 17 C45 16 45 16 44.90234375 14.15234375 C44.93489583 12.1015625 44.96744792 10.05078125 45 8 C41.7 8 38.4 8 35 8 C35 10.97 35 13.94 35 17 C33.35 16.67 31.7 16.34 30 16 C30 13.36 30 10.72 30 8 C26.7 8 23.4 8 20 8 C20 10.64 20 13.28 20 16 C18.34385343 16.38218767 16.67542976 16.71395102 15 17 C14 16 14 16 13.90234375 14.15234375 C13.93489583 12.1015625 13.96744792 10.05078125 14 8 C10.7 8 7.4 8 4 8 C4 10.97 4 13.94 4 17 C2.35 16.67 0.7 16.34 -1 16 C-1 13.36 -1 10.72 -1 8 C-5.8360677 8.97568397 -5.8360677 8.97568397 -9.70521545 11.79652405 C-11.16228966 14.276186 -11.38417725 15.653011 -11.40405273 18.50561523 C-11.41673691 19.39010849 -11.42942108 20.27460175 -11.44248962 21.18589783 C-11.43955399 22.13388748 -11.43661835 23.08187714 -11.43359375 24.05859375 C-11.4388356 25.03989761 -11.44407745 26.02120148 -11.44947815 27.03224182 C-11.45589648 29.10587621 -11.45456381 31.17954701 -11.44604492 33.25317383 C-11.43753972 36.42269888 -11.46629187 39.59041881 -11.49804688 42.75976562 C-11.49965913 44.77604113 -11.49908088 46.79231982 -11.49609375 48.80859375 C-11.50732773 49.75455917 -11.51856171 50.7005246 -11.53013611 51.67515564 C-11.48472692 55.97186953 -11.40028451 58.35432523 -9.09399414 62.07446289 C-5.7381624 65.16032565 -3.73221013 65.13556236 0.74731445 65.17700195 C1.9522908 65.18983719 3.15726715 65.20267242 4.39875793 65.21589661 C5.70705063 65.22328354 7.01534332 65.23067047 8.36328125 65.23828125 C9.02819265 65.24235678 9.69310406 65.2464323 10.37816429 65.25063133 C13.89818384 65.2714908 17.41816443 65.28579241 20.93823242 65.29516602 C24.57000857 65.30622428 28.20117095 65.3406166 31.83273029 65.38033772 C34.62862773 65.40651374 37.42437922 65.4148587 40.22038841 65.41844749 C42.20848188 65.42567295 44.19647554 65.45210878 46.18440247 65.47883606 C47.3988353 65.47591049 48.61326813 65.47298492 49.86450195 65.4699707 C50.93102493 65.47583694 51.99754791 65.48170319 53.09638977 65.48774719 C56.76463778 64.87155648 58.37679358 63.59874238 61 61 C62.78288883 58.25219178 63.25717509 56.12211216 63.31884766 52.87402344 C63.33871735 52.07349548 63.35858704 51.27296753 63.37905884 50.44818115 C63.39061005 49.59387512 63.40216125 48.73956909 63.4140625 47.859375 C63.43342865 46.97719299 63.4527948 46.09501099 63.4727478 45.18609619 C63.53242848 42.37416184 63.57888283 39.5621863 63.625 36.75 C63.66319038 34.84112819 63.70224273 32.93227341 63.7421875 31.0234375 C63.83812058 26.34909704 63.92219416 21.67467591 64 17 C64.33 17 64.66 17 65 17 C65.09911689 22.87153231 65.17158611 28.74257413 65.21972656 34.61474609 C65.23980169 36.61092618 65.26706789 38.60704775 65.30175781 40.60302734 C65.35045657 43.4776862 65.37300986 46.3515654 65.390625 49.2265625 C65.41127014 50.11429352 65.43191528 51.00202454 65.45318604 51.91665649 C65.45517325 57.44448836 64.74470446 60.64752071 61 65 C57.46648031 67.35567979 55.96031356 67.26234471 51.77197266 67.29052734 C49.84449692 67.3096669 49.84449692 67.3096669 47.87808228 67.32919312 C46.47341055 67.33225074 45.0687368 67.33447852 43.6640625 67.3359375 C42.22301094 67.34236504 40.78196068 67.34909336 39.34091187 67.35610962 C36.31969173 67.36808562 33.29858595 67.37179016 30.27734375 67.37060547 C26.41128026 67.37040235 22.54595247 67.39769461 18.68006325 67.43214989 C15.7031418 67.45442026 12.72639731 67.45844297 9.74940109 67.45738602 C8.32447145 67.45974216 6.89953694 67.46856658 5.47468948 67.48405075 C3.4788285 67.50370784 1.48275153 67.49535089 -0.51318359 67.48583984 C-1.64774994 67.48868988 -2.78231628 67.49153992 -3.95126343 67.49447632 C-7.67290608 66.89086098 -9.31661849 65.595046 -12 63 C-14.71946764 58.48383305 -14.32322219 53.43500837 -14.3359375 48.31640625 C-14.3425943 47.3832811 -14.3492511 46.45015594 -14.35610962 45.48875427 C-14.36621379 43.51945969 -14.37092733 41.55013102 -14.37060547 39.58081055 C-14.37498022 36.57608442 -14.41132768 33.57282603 -14.44921875 30.56835938 C-14.45508714 28.65104667 -14.45905639 26.73372701 -14.4609375 24.81640625 C-14.47530853 23.92248672 -14.48967957 23.0285672 -14.50448608 22.1075592 C-14.46416403 16.57489153 -13.71662123 13.37387545 -10 9 C-6.56397188 6.42297891 -5.39927132 6 -1 6 C-1.020625 5.195625 -1.04125 4.39125 -1.0625 3.5625 C-1 1 -1 1 0 0 Z " fill="#414445" transform="translate(231,444)"/>
<path d="M0 0 C2.67927341 4.01891012 2.15601248 6.24161923 2 11 C2.763125 10.938125 3.52625 10.87625 4.3125 10.8125 C7 11 7 11 8.875 12.1875 C10 14 10 14 9.8125 16.5625 C9 19 9 19 7 21 C5.35 21 3.7 21 2 21 C2.33 25.62 2.66 30.24 3 35 C4.134375 35.309375 5.26875 35.61875 6.4375 35.9375 C10 37 10 37 11 38 C10.6875 41.5 10.6875 41.5 10 45 C6.89046621 46.5547669 4.43733239 46.28644437 1 46 C-3.43918335 43.69503942 -5.89427966 41.518397 -8 37 C-8.20984775 34.14327264 -8.28649823 31.52798778 -8.1875 28.6875 C-8.17396484 27.94693359 -8.16042969 27.20636719 -8.14648438 26.44335938 C-8.11135979 24.62858925 -8.05755972 22.81419712 -8 21 C-9.32 20.67 -10.64 20.34 -12 20 C-12.625 16.625 -12.625 16.625 -13 13 C-12.34 12.34 -11.68 11.68 -11 11 C-10.01 11 -9.02 11 -8 11 C-8.0928125 9.1128125 -8.0928125 9.1128125 -8.1875 7.1875 C-8.17371263 3.29256864 -8.17371263 3.29256864 -6.8125 1 C-4.35051898 -0.35833436 -2.76589638 -0.42552252 0 0 Z " fill="#478CDD" transform="translate(548,451)"/>
<path d="M0 0 C3 0.25 3 0.25 5 2.25 C5.17525055 5.04684797 5.23143189 7.7432808 5.1953125 10.5390625 C5.1924826 11.35748627 5.18965271 12.17591003 5.18673706 13.01913452 C5.17552532 15.63790393 5.15041929 18.25633364 5.125 20.875 C5.11497147 22.64843257 5.1058454 24.42187049 5.09765625 26.1953125 C5.07558278 30.54700626 5.04104644 34.8984455 5 39.25 C6.98 39.58 8.96 39.91 11 40.25 C12.32 45.65 12.32 45.65 11 48.125 C7.85714559 49.89285561 5.53751934 49.67694199 2 49.25 C-2.04544348 46.82273391 -3.64843359 44.70634396 -5 40.25 C-5.282065 37.33787077 -5.2804384 34.44353751 -5.265625 31.51953125 C-5.26753845 30.68789963 -5.2694519 29.85626801 -5.27142334 28.99943542 C-5.27278007 27.24872534 -5.26911947 25.49800502 -5.26074219 23.74731445 C-5.24999453 21.0611331 -5.26067547 18.37561434 -5.2734375 15.68945312 C-5.27211661 13.98697769 -5.26955568 12.28450266 -5.265625 10.58203125 C-5.26967346 9.77683548 -5.27372192 8.97163971 -5.27789307 8.14204407 C-5.21262561 0.43438547 -5.21262561 0.43438547 0 0 Z " fill="#468CDD" transform="translate(566,447.75)"/>
<path d="M0 0 C0.99 0.33 1.98 0.66 3 1 C3.66 0.67 4.32 0.34 5 0 C11.34829 -0.82598569 15.91494998 -0.12531379 21.30859375 3.3203125 C25.26647198 7.25076894 26.18345807 11.12153293 26.36328125 16.546875 C26.36196083 18.6146522 26.34460448 20.68247163 26.3125 22.75 C26.31572266 23.80316406 26.31894531 24.85632813 26.32226562 25.94140625 C26.26725618 33.73274382 26.26725618 33.73274382 24 36 C20.4375 35.75 20.4375 35.75 17 35 C15.8260447 32.65208941 15.83078388 31.11746336 15.75390625 28.5 C15.72103516 27.613125 15.68816406 26.72625 15.65429688 25.8125 C15.59310298 23.9376233 15.53581057 22.06261519 15.48242188 20.1875 C15.44826172 19.300625 15.41410156 18.41375 15.37890625 17.5 C15.3538501 16.6853125 15.32879395 15.870625 15.30297852 15.03125 C15.17248872 12.77578696 15.17248872 12.77578696 13 11 C10.28545044 10.67247766 7.74769241 10.8691575 5 11 C3.43296455 12.56703545 3.83638347 14.15722016 3.7890625 16.33203125 C3.76070313 17.21310547 3.73234375 18.09417969 3.703125 19.00195312 C3.65137278 20.86373937 3.60700499 22.7257467 3.5703125 24.58789062 C3.52390625 25.91530273 3.52390625 25.91530273 3.4765625 27.26953125 C3.45674316 28.08010986 3.43692383 28.89068848 3.41650391 29.72583008 C2.90388049 32.52482606 1.93670817 33.93799594 0 36 C-2.79722236 36.48951391 -4.25882884 36.50224828 -6.63134766 34.89453125 C-8.67951478 32.05939446 -8.38884529 29.71415749 -8.3984375 26.25 C-8.40130768 25.59547852 -8.40417786 24.94095703 -8.40713501 24.26660156 C-8.40917368 22.88475681 -8.40365746 21.50288307 -8.39111328 20.12109375 C-8.37505436 18.0071555 -8.39096601 15.89512887 -8.41015625 13.78125 C-8.40817378 12.43749578 -8.40433002 11.09374276 -8.3984375 9.75 C-8.39505371 8.52796875 -8.39166992 7.3059375 -8.38818359 6.046875 C-8 3 -8 3 -6.63134766 1.09375 C-4.33150489 -0.44819786 -2.71435673 -0.27143567 0 0 Z M0 5 C0 4.34 0 3.68 0 3 C-1.65 3 -3.3 3 -5 3 C-5 12.9 -5 22.8 -5 33 C-3.68 33.33 -2.36 33.66 -1 34 C0.56703545 32.43296455 0.16361653 30.84277984 0.2109375 28.66796875 C0.23929687 27.78689453 0.26765625 26.90582031 0.296875 25.99804688 C0.34862722 24.13626063 0.39299501 22.2742533 0.4296875 20.41210938 C0.460625 19.52716797 0.4915625 18.64222656 0.5234375 17.73046875 C0.5531665 16.51460083 0.5531665 16.51460083 0.58349609 15.27416992 C1.09555596 12.47825103 2.07318743 11.06572907 4 9 C6.375 8.50390625 6.375 8.50390625 9 8.5625 C9.86625 8.56378906 10.7325 8.56507813 11.625 8.56640625 C14.49842207 9.09099482 15.22446098 9.71783549 17 12 C17.43237305 14.26831055 17.43237305 14.26831055 17.51171875 16.88671875 C17.56489258 18.2934082 17.56489258 18.2934082 17.61914062 19.72851562 C17.64169922 20.70498047 17.66425781 21.68144531 17.6875 22.6875 C17.73874023 24.16959961 17.73874023 24.16959961 17.79101562 25.68164062 C17.87350538 28.12098053 17.94265068 30.55996063 18 33 C19.65614657 33.38218767 21.32457024 33.71395102 23 34 C25.27299781 31.72700219 24.23279895 26.42388636 24.25 23.375 C24.270625 22.48425781 24.29125 21.59351563 24.3125 20.67578125 C24.34600792 14.98781245 23.71706885 11.02426357 21 6 C17.46459266 2.57863806 14.41701265 2.1049639 9.625 1.75 C5.69886737 2.02076777 3.36756285 3.0287437 0 5 Z " fill="#063A77" transform="translate(507,461)"/>
<path d="M0 0 C0.33 3.63 0.66 7.26 1 11 C11.56 11 22.12 11 33 11 C33 10.67 33 10.34 33 10 C34.02480469 10.02320313 35.04960937 10.04640625 36.10546875 10.0703125 C37.46613851 10.08908036 38.8268162 10.10727947 40.1875 10.125 C40.86103516 10.14175781 41.53457031 10.15851563 42.22851562 10.17578125 C46.37008808 10.21618683 49.22197115 9.57008991 53 8 C56.11328125 7.8046875 56.11328125 7.8046875 59.3125 7.875 C60.38113281 7.89304687 61.44976562 7.91109375 62.55078125 7.9296875 C63.35902344 7.95289063 64.16726563 7.97609375 65 8 C65.33 7.34 65.66 6.68 66 6 C65.67 20.19 65.34 34.38 65 49 C64.67 49 64.34 49 64 49 C64 37.45 64 25.9 64 14 C39.25 14 14.5 14 -11 14 C-11 6 -11 6 -9.125 3.0625 C-5.69194198 -0.26958573 -5.17899205 0 0 0 Z " fill="#30ABBA" transform="translate(230,452)"/>
<path d="M0 0 C1.63134766 1.1015625 1.63134766 1.1015625 3 3 C3.38818359 6.046875 3.38818359 6.046875 3.3984375 9.75 C3.40274277 10.73178223 3.40274277 10.73178223 3.40713501 11.73339844 C3.40917368 13.11524319 3.40365746 14.49711693 3.39111328 15.87890625 C3.37505436 17.9928445 3.39096601 20.10487113 3.41015625 22.21875 C3.40817378 23.56250422 3.40433002 24.90625724 3.3984375 26.25 C3.39505371 27.47203125 3.39166992 28.6940625 3.38818359 29.953125 C3 33 3 33 1.63134766 34.8984375 C-0.71536991 36.48305134 -2.23186998 36.4152195 -5 36 C-6.63134766 34.8984375 -6.63134766 34.8984375 -8 33 C-8.38818359 29.953125 -8.38818359 29.953125 -8.3984375 26.25 C-8.40130768 25.59547852 -8.40417786 24.94095703 -8.40713501 24.26660156 C-8.40917368 22.88475681 -8.40365746 21.50288307 -8.39111328 20.12109375 C-8.37505436 18.0071555 -8.39096601 15.89512887 -8.41015625 13.78125 C-8.40817378 12.43749578 -8.40433002 11.09374276 -8.3984375 9.75 C-8.39505371 8.52796875 -8.39166992 7.3059375 -8.38818359 6.046875 C-8 3 -8 3 -6.63134766 1.1015625 C-4.28463009 -0.48305134 -2.76813002 -0.4152195 0 0 Z " fill="#1E4F88" transform="translate(490,461)"/>
<path d="M0 0 C4.26212308 1.6850254 5.57091284 5.15495447 7.6875 9.0625 C8.15800781 9.8978125 8.62851562 10.733125 9.11328125 11.59375 C10.31999606 13.74204228 11.51008115 15.89805343 12.6875 18.0625 C13.24179687 16.93070312 13.79609375 15.79890625 14.3671875 14.6328125 C15.0987463 13.15093697 15.83052878 11.66917185 16.5625 10.1875 C16.92730469 9.44113281 17.29210937 8.69476563 17.66796875 7.92578125 C18.02246094 7.21035156 18.37695312 6.49492187 18.7421875 5.7578125 C19.06687012 5.09797363 19.39155273 4.43813477 19.72607422 3.75830078 C20.6875 2.0625 20.6875 2.0625 22.6875 0.0625 C25.98464793 0.39221479 27.3101839 0.6851839 29.6875 3.0625 C29.41413434 8.62538449 26.97104723 13.3815361 24.6875 18.36328125 C24.29175781 19.24026169 23.89601563 20.11724213 23.48828125 21.02079773 C22.65434952 22.86538048 21.81704125 24.70843999 20.9765625 26.55004883 C19.68535498 29.37970077 18.40431475 32.21378228 17.125 35.04882812 C16.31308474 36.8414108 15.50060458 38.63373774 14.6875 40.42578125 C14.30207031 41.27674881 13.91664063 42.12771637 13.51953125 43.00447083 C13.16246094 43.78585922 12.80539062 44.56724762 12.4375 45.37231445 C12.12296875 46.06259232 11.8084375 46.75287018 11.484375 47.46406555 C10.6875 49.0625 10.6875 49.0625 9.6875 50.0625 C6.8915342 50.35681219 5.25037181 50.40022308 2.8125 48.9375 C1.6875 47.0625 1.6875 47.0625 1.75 44.4375 C2.76189912 40.79466318 4.24710017 37.72169968 6.04296875 34.40625 C7.71835701 28.31392907 2.39344184 21.72334079 -0.5 16.5625 C-1.21446289 15.31919922 -1.21446289 15.31919922 -1.94335938 14.05078125 C-5.32979962 7.88559771 -5.32979962 7.88559771 -5.23828125 3.53125 C-4.04751474 0.35587264 -3.33053469 0.09001445 0 0 Z M22.6875 2.0625 C21.1780412 5.16215403 19.68159333 8.26791403 18.1875 11.375 C17.75824219 12.25607422 17.32898438 13.13714844 16.88671875 14.04492188 C16.48066406 14.89248047 16.07460938 15.74003906 15.65625 16.61328125 C15.27919922 17.39356689 14.90214844 18.17385254 14.51367188 18.9777832 C13.50328852 21.15358665 13.50328852 21.15358665 13.6875 24.0625 C13.0275 24.0625 12.3675 24.0625 11.6875 24.0625 C11.44257812 23.23492187 11.19765625 22.40734375 10.9453125 21.5546875 C9.49556511 17.52961244 7.6151949 13.93022286 5.5625 10.1875 C5.00369141 9.15496094 5.00369141 9.15496094 4.43359375 8.1015625 C3.52250474 6.41955202 2.60559685 4.74069564 1.6875 3.0625 C0.0375 3.3925 -1.6125 3.7225 -3.3125 4.0625 C-1.47827227 10.593623 1.9599383 16.22992984 5.31835938 22.07421875 C8.71190796 28.25234339 8.71190796 28.25234339 8.5859375 32.43359375 C7.6875 35.0625 7.6875 35.0625 6.125 38.625 C4.7837454 41.83234795 4.37826075 43.66086823 4.6875 47.0625 C6.0075 47.3925 7.3275 47.7225 8.6875 48.0625 C12.19899063 40.50115364 15.69199932 32.93156153 19.16943359 25.35449219 C20.47003242 22.53408778 21.7874724 19.72266143 23.11328125 16.9140625 C23.76377952 15.50555847 24.41359018 14.09673654 25.0625 12.6875 C25.36615479 12.05972656 25.66980957 11.43195313 25.98266602 10.78515625 C27.56233246 7.30320025 27.56233246 7.30320025 26.8515625 3.6484375 C26.46742188 3.12507813 26.08328125 2.60171875 25.6875 2.0625 C24.6975 2.0625 23.7075 2.0625 22.6875 2.0625 Z " fill="#0F417D" transform="translate(580.3125,460.9375)"/>
<path d="M0 0 C2.75 -0.375 2.75 -0.375 6 0 C9.4428272 4.3756948 11.56469162 9.17550101 13.70703125 14.28515625 C14.03668381 15.06386581 14.36633636 15.84257538 14.70597839 16.6448822 C15.39580052 18.28145749 16.08221749 19.91947185 16.76538086 21.55883789 C17.81325382 24.06430239 18.88167977 26.56034157 19.95117188 29.05664062 C20.62106588 30.65311176 21.28972884 32.25010013 21.95703125 33.84765625 C22.27775101 34.59048355 22.59847076 35.33331085 22.9289093 36.09864807 C24.56209121 40.08112201 25.58732854 42.8807422 24 47 C22 49 22 49 19.5625 49.375 C17 49 17 49 15.3125 47.3125 C14 45 14 45 12 40 C6.06 39.67 0.12 39.34 -6 39 C-6.66 41.31 -7.32 43.62 -8 46 C-9.3125 47.9375 -9.3125 47.9375 -11 49 C-13.5625 49.3125 -13.5625 49.3125 -16 49 C-18 47 -18 47 -18.29174805 43.8059082 C-17.97529401 39.67770573 -17.00591436 36.88058141 -15.33203125 33.10546875 C-14.91699593 32.15707878 -14.91699593 32.15707878 -14.49357605 31.18952942 C-13.61177804 29.18334659 -12.71227164 27.18567531 -11.8125 25.1875 C-11.22739418 23.85921739 -10.64340055 22.53044427 -10.06054688 21.20117188 C-6.90169054 14.03565216 -3.59504064 6.95890547 0 0 Z M1 2 C-1.72322106 8.1719559 -4.44205649 14.34578969 -7.15234375 20.5234375 C-8.77563698 24.22298633 -10.40747309 27.91786713 -12.06640625 31.6015625 C-12.60136719 32.80554688 -13.13632812 34.00953125 -13.6875 35.25 C-14.14511719 36.26578125 -14.60273438 37.2815625 -15.07421875 38.328125 C-16.0244939 41.07069125 -16.19435955 43.12137751 -16 46 C-14.68 46.33 -13.36 46.66 -12 47 C-9.52746322 43.96552304 -8.52573205 41.81433013 -7 38 C3.395 37.505 3.395 37.505 14 37 C14.99 39.97 15.98 42.94 17 46 C18.32 46.33 19.64 46.66 21 47 C21.33 46.67 21.66 46.34 22 46 C21.59673305 39.98875022 20.14634743 35.11198586 17.796875 29.59765625 C17.47720764 28.83448593 17.15754028 28.07131561 16.82818604 27.28501892 C16.15429901 25.68702093 15.47500004 24.09129526 14.79052734 22.49780273 C13.74608194 20.05332998 12.73399892 17.59699369 11.72265625 15.13867188 C11.06182334 13.5825134 10.39912809 12.02714416 9.734375 10.47265625 C9.43521179 9.7373317 9.13604858 9.00200714 8.82781982 8.24440002 C7.87031891 5.94833967 7.87031891 5.94833967 6 3 C3.39361356 1.91397546 3.39361356 1.91397546 1 2 Z " fill="#14457F" transform="translate(335,448)"/>
<path d="M0 0 C1.67542976 0.28604898 3.34385343 0.61781233 5 1 C5 2.65 5 4.3 5 6 C8.3 6 11.6 6 15 6 C15 4.35 15 2.7 15 1 C16.65 0.67 18.3 0.34 20 0 C20 1.98 20 3.96 20 6 C23.3 6 26.6 6 30 6 C30 4.35 30 2.7 30 1 C31.65614657 0.61781233 33.32457024 0.28604898 35 0 C36 1 36 1 36.0625 3.5625 C36.041875 4.366875 36.02125 5.17125 36 6 C37.051875 6.0825 38.10375 6.165 39.1875 6.25 C43.35084439 7.06901857 45.1090428 7.93898649 48 11 C48.8125 13.75 48.8125 13.75 49 16 C48.401875 15.21625 47.80375 14.4325 47.1875 13.625 C43.77575813 9.53090976 41.14298383 8.68573118 36 8 C36 10.64 36 13.28 36 16 C34.34385343 16.38218767 32.67542976 16.71395102 31 17 C30 16 30 16 29.90234375 14.15234375 C29.93489583 12.1015625 29.96744792 10.05078125 30 8 C26.7 8 23.4 8 20 8 C20 10.97 20 13.94 20 17 C18.35 16.67 16.7 16.34 15 16 C15 13.36 15 10.72 15 8 C11.37 8 7.74 8 4 8 C4 10.31 4 12.62 4 15 C3.01 15.33 2.02 15.66 1 16 C1 12.7 1 9.4 1 6 C0.34 6 -0.32 6 -1 6 C-1.042721 4.33388095 -1.04063832 2.66617115 -1 1 C-0.67 0.67 -0.34 0.34 0 0 Z " fill="#141B1D" transform="translate(246,444)"/>
<path d="M0 0 C2.67927341 4.01891012 2.15601248 6.24161923 2 11 C2.763125 10.938125 3.52625 10.87625 4.3125 10.8125 C7 11 7 11 8.875 12.1875 C10 14 10 14 9.8125 16.5625 C9 19 9 19 7 21 C5.35 21 3.7 21 2 21 C2.33 25.62 2.66 30.24 3 35 C4.134375 35.309375 5.26875 35.61875 6.4375 35.9375 C10 37 10 37 11 38 C10.6875 41.5 10.6875 41.5 10 45 C6.89046621 46.5547669 4.43733239 46.28644437 1 46 C-3.43918335 43.69503942 -5.89427966 41.518397 -8 37 C-8.20984775 34.14327264 -8.28649823 31.52798778 -8.1875 28.6875 C-8.17396484 27.94693359 -8.16042969 27.20636719 -8.14648438 26.44335938 C-8.11135979 24.62858925 -8.05755972 22.81419712 -8 21 C-9.32 20.67 -10.64 20.34 -12 20 C-12.625 16.625 -12.625 16.625 -13 13 C-12.34 12.34 -11.68 11.68 -11 11 C-10.01 11 -9.02 11 -8 11 C-8.0928125 9.1128125 -8.0928125 9.1128125 -8.1875 7.1875 C-8.17371263 3.29256864 -8.17371263 3.29256864 -6.8125 1 C-4.35051898 -0.35833436 -2.76589638 -0.42552252 0 0 Z M-5 3 C-5 6.63 -5 10.26 -5 14 C-6.65 14 -8.3 14 -10 14 C-10.33 15.32 -10.66 16.64 -11 18 C-9.35 18 -7.7 18 -6 18 C-6.05220703 19.73636719 -6.05220703 19.73636719 -6.10546875 21.5078125 C-6.13362207 23.0468604 -6.16092056 24.58592411 -6.1875 26.125 C-6.21263672 26.88554687 -6.23777344 27.64609375 -6.26367188 28.4296875 C-6.33889209 34.24671725 -5.38324046 38.53457884 -1.1875 42.875 C1.71074289 44.36552492 3.78604504 44.34934293 7 44 C7.66 43.34 8.32 42.68 9 42 C8.6814823 39.89179203 8.6814823 39.89179203 8 38 C6.5459375 37.814375 6.5459375 37.814375 5.0625 37.625 C4.051875 37.41875 3.04125 37.2125 2 37 C0.3501993 33.70039859 0.61741639 30.00872116 0.4375 26.375 C0.39431641 25.57320313 0.35113281 24.77140625 0.30664062 23.9453125 C0.20048543 21.9637489 0.09973145 19.98189729 0 18 C2.31 18 4.62 18 7 18 C7 16.68 7 15.36 7 14 C4.69 14 2.38 14 0 14 C0 10.37 0 6.74 0 3 C-1.65 3 -3.3 3 -5 3 Z " fill="#0E407C" transform="translate(548,451)"/>
<path d="M0 0 C4.05523038 2.85709413 7.51585617 6.46921234 9.75 10.9375 C10.4830431 18.07565737 10.06404113 24.03700504 5.75 29.9375 C1.62734279 33.85905198 -1.5628312 35.08270926 -7.1875 35.125 C-8.04214844 35.13917969 -8.89679688 35.15335937 -9.77734375 35.16796875 C-12.38909303 34.92453556 -14.00500652 34.2553268 -16.25 32.9375 C-16.21519531 33.84113281 -16.18039062 34.74476563 -16.14453125 35.67578125 C-16.11746094 36.85527344 -16.09039062 38.03476562 -16.0625 39.25 C-16.02769531 40.42175781 -15.99289062 41.59351563 -15.95703125 42.80078125 C-16.25 45.9375 -16.25 45.9375 -17.6015625 47.8671875 C-19.25 48.9375 -19.25 48.9375 -21.8125 48.75 C-24.25 47.9375 -24.25 47.9375 -26.25 45.9375 C-26.47705078 43.23193359 -26.47705078 43.23193359 -26.4453125 39.8359375 C-26.43886719 38.62421875 -26.43242187 37.4125 -26.42578125 36.1640625 C-26.40902344 34.89304687 -26.39226562 33.62203125 -26.375 32.3125 C-26.36146484 30.394375 -26.36146484 30.394375 -26.34765625 28.4375 C-26.32402303 25.27064833 -26.29107629 22.10416576 -26.25 18.9375 C-25.59 18.6075 -24.93 18.2775 -24.25 17.9375 C-23.92 26.8475 -23.59 35.7575 -23.25 44.9375 C-21.93 44.9375 -20.61 44.9375 -19.25 44.9375 C-18.92 39.3275 -18.59 33.7175 -18.25 27.9375 C-16.27 29.2575 -14.29 30.5775 -12.25 31.9375 C-7.94267318 32.84921751 -4.09264269 32.20778162 0.0625 30.875 C3.48771875 28.40565625 5.43256992 25.90459283 6.75 21.9375 C7.52722677 16.92518042 7.33753162 13.15775797 5.125 8.5625 C1.31955843 4.35648563 -1.85988748 1.74214142 -7.625 1.375 C-12.74175743 1.65974367 -16.65302075 3.24308565 -20.25 6.9375 C-21.99875021 10.1640673 -23.21254445 13.42243678 -24.25 16.9375 C-24.58 16.9375 -24.91 16.9375 -25.25 16.9375 C-25.84678329 12.1632337 -25.44460953 9.6525759 -22.625 5.6875 C-16.55862073 -1.59215512 -8.85687448 -2.89551666 0 0 Z " fill="#083B78" transform="translate(428.25,462.0625)"/>
<path d="M0 0 C-1.94770884 1.29847256 -3.92646812 2.55193845 -5.9375 3.75 C-9.38004175 6.27921435 -10.94556655 8.2610615 -13 12 C-13.40232013 14.8022065 -13.60455436 17.22695295 -13.609375 20.0234375 C-13.62591125 20.76961334 -13.64244751 21.51578918 -13.65948486 22.28457642 C-13.70774291 24.6481365 -13.72928476 27.01105435 -13.75 29.375 C-13.7781785 30.98570901 -13.80810856 32.59638839 -13.83984375 34.20703125 C-13.9134949 38.13796788 -13.96320414 42.06855265 -14 46 C-12.35 46 -10.7 46 -9 46 C-9 40.06 -9 34.12 -9 28 C-5.535 29.98 -5.535 29.98 -2 32 C2.20414805 32.84215584 5.8499737 32.52273923 9.75 30.75 C10.4925 30.1725 11.235 29.595 12 29 C13.3921875 27.9171875 13.3921875 27.9171875 14.8125 26.8125 C15.8953125 25.9153125 15.8953125 25.9153125 17 25 C16.45503269 28.81477116 14.88938827 30.52338148 12 33 C8.72457115 35.02832902 6.19850249 35.24418265 2.375 35.1875 C1.41335938 35.18105469 0.45171875 35.17460937 -0.5390625 35.16796875 C-3 35 -3 35 -5 34 C-5.02578125 34.83144531 -5.0515625 35.66289062 -5.078125 36.51953125 C-5.13484375 37.60621094 -5.1915625 38.69289063 -5.25 39.8125 C-5.31960938 41.43091797 -5.31960938 41.43091797 -5.390625 43.08203125 C-6 46 -6 46 -7.87890625 47.90234375 C-10 49 -10 49 -12.6875 48.75 C-15 48 -15 48 -16 47 C-16.13828388 44.40388704 -16.21314425 41.83630207 -16.23828125 39.23828125 C-16.246353 38.45486862 -16.25442474 37.67145599 -16.26274109 36.86430359 C-16.27660112 35.20065536 -16.28731465 33.53697846 -16.29516602 31.87329102 C-16.31231318 29.34009878 -16.35617147 26.80823403 -16.40039062 24.27539062 C-16.41052317 22.65886377 -16.41903751 21.0423258 -16.42578125 19.42578125 C-16.44328934 18.67242996 -16.46079742 17.91907867 -16.47883606 17.14289856 C-16.45408296 11.07583374 -14.44351593 7.75055458 -10.5078125 3.3203125 C-6.93687291 0.23356811 -4.66956044 -0.55590005 0 0 Z " fill="#124785" transform="translate(378,462)"/>
<path d="M0 0 C3 0.25 3 0.25 5 2.25 C5.17525055 5.04684797 5.23143189 7.7432808 5.1953125 10.5390625 C5.1924826 11.35748627 5.18965271 12.17591003 5.18673706 13.01913452 C5.17552532 15.63790393 5.15041929 18.25633364 5.125 20.875 C5.11497147 22.64843257 5.1058454 24.42187049 5.09765625 26.1953125 C5.07558278 30.54700626 5.04104644 34.8984455 5 39.25 C6.98 39.58 8.96 39.91 11 40.25 C12.32 45.65 12.32 45.65 11 48.125 C7.85714559 49.89285561 5.53751934 49.67694199 2 49.25 C-2.04544348 46.82273391 -3.64843359 44.70634396 -5 40.25 C-5.282065 37.33787077 -5.2804384 34.44353751 -5.265625 31.51953125 C-5.26753845 30.68789963 -5.2694519 29.85626801 -5.27142334 28.99943542 C-5.27278007 27.24872534 -5.26911947 25.49800502 -5.26074219 23.74731445 C-5.24999453 21.0611331 -5.26067547 18.37561434 -5.2734375 15.68945312 C-5.27211661 13.98697769 -5.26955568 12.28450266 -5.265625 10.58203125 C-5.26967346 9.77683548 -5.27372192 8.97163971 -5.27789307 8.14204407 C-5.21262561 0.43438547 -5.21262561 0.43438547 0 0 Z M-2 2.25 C-4.0043759 4.2543759 -3.18783119 8.26425151 -3.203125 11.01171875 C-3.20882507 11.79513138 -3.21452515 12.57854401 -3.22039795 13.38569641 C-3.2298654 15.04935347 -3.23638883 16.71302943 -3.24023438 18.37670898 C-3.24989392 20.9096823 -3.28088038 23.44182833 -3.3125 25.97460938 C-3.31903456 27.59114102 -3.32428325 29.20767847 -3.328125 30.82421875 C-3.3466452 31.95424568 -3.3466452 31.95424568 -3.36553955 33.10710144 C-3.34546081 37.90460694 -2.59653249 41.20271013 0 45.25 C3.22791555 47.4019437 4.28400809 47.45086443 8 47.25 C8.66 45.93 9.32 44.61 10 43.25 C9.34 42.59 8.68 41.93 8 41.25 C6.68 41.25 5.36 41.25 4 41.25 C3.67 28.71 3.34 16.17 3 3.25 C1.35 2.92 -0.3 2.59 -2 2.25 Z " fill="#013571" transform="translate(566,447.75)"/>
<path d="M0 0 C1.90625 0.41015625 1.90625 0.41015625 4.40625 1.91015625 C6.49783203 5.39612629 6.7938776 8.51231331 5.90625 12.41015625 C3.47209727 15.84660716 2.01849846 17.15526598 -2.09375 18.09765625 C-6.44696372 17.10004477 -7.75320491 15.12749257 -10.09375 11.41015625 C-10.79431777 7.59595392 -10.38427649 5.96699869 -8.59375 2.53515625 C-5.55267495 -0.04975755 -3.89338955 -0.28328767 0 0 Z " fill="#F6F7FA" transform="translate(461.09375,470.58984375)"/>
<path d="M0 0 C3.9375 0.5 3.9375 0.5 5.875 1.875 C8.25660911 5.517461 8.38029238 8.14587492 7.9375 12.5 C5.46256641 15.92123173 4.05486219 17.29477021 -0.125 18.0625 C-3.67984581 17.38178485 -4.839546 16.29927541 -7.0625 13.5 C-8.48912219 10.64675563 -8.37283868 8.66545451 -8.0625 5.5 C-5.99835512 1.54372232 -4.38390711 0.17761686 0 0 Z " fill="#F6F8FA" transform="translate(420.0625,470.5)"/>
<path d="M0 0 C2.99993115 2.54994148 3.85480459 4.12882756 4.5 8 C3.86089908 11.83460553 2.89357127 13.40320527 0 16 C-3.4375 17.125 -3.4375 17.125 -7 17 C-9.98170781 15.03334166 -11.64103498 13.59330089 -12.4453125 10.0234375 C-12.6333015 6.67723326 -12.22201079 4.37001798 -10.5 1.5 C-6.98105682 -0.61136591 -3.99893269 -0.94237143 0 0 Z " fill="#F5F7F9" transform="translate(384,471)"/>
<path d="M0 0 C-1.63236423 1.08824282 -3.27719325 2.16137587 -4.97265625 3.1484375 C-5.66230469 3.55320312 -6.35195313 3.95796875 -7.0625 4.375 C-8.10083984 4.97441406 -8.10083984 4.97441406 -9.16015625 5.5859375 C-11.35346897 7.27166829 -12.08641399 8.39305003 -13 11 C-13.35335815 13.87730058 -13.35335815 13.87730058 -13.3125 16.9375 C-13.32925781 17.95714844 -13.34601563 18.97679687 -13.36328125 20.02734375 C-12.79387462 24.68668184 -10.86968353 27.21516364 -7.4375 30.3125 C-2.82398457 32.57731666 0.94915693 32.6816585 6 32 C10.22467804 30.46375344 12.69648049 28.8796118 15 25 C16.86080151 19.41759548 16.93825348 13.94868031 14.375 8.625 C10.51195408 4.35531766 6.79306138 1.68153663 1 1 C1 0.67 1 0.34 1 0 C5.54239804 -0.31326883 8.1111075 -0.42735216 12.25 1.5625 C16.46949805 5.30250963 18.6038817 8.30861677 19.41796875 13.83984375 C19.69921746 19.86768777 19.20656166 24.47458446 15.53125 29.375 C11.0221117 34.16020799 7.34854542 35.24609721 0.9375 35.5 C-4.15738575 35.32190162 -7.11985074 34.49213433 -11 31 C-11.7425 30.484375 -12.485 29.96875 -13.25 29.4375 C-16.49482369 24.91792415 -17.21393795 19.20906918 -16.84765625 13.71484375 C-15.68733965 7.97956455 -12.79886566 3.98629176 -8.0625 0.625 C-5.32640504 -0.20411968 -2.83983385 -0.12908336 0 0 Z " fill="#114480" transform="translate(458,462)"/>
<path d="M0 0 C-0.33 0.99 -0.66 1.98 -1 3 C-2.32 3 -3.64 3 -5 3 C-4.67 12.9 -4.34 22.8 -4 33 C-3.01 33 -2.02 33 -1 33 C-0.98018066 32.40985107 -0.96036133 31.81970215 -0.93994141 31.21166992 C-0.84465341 28.53649904 -0.73499061 25.86210502 -0.625 23.1875 C-0.57859375 21.7943457 -0.57859375 21.7943457 -0.53125 20.37304688 C-0.49257813 19.48037109 -0.45390625 18.58769531 -0.4140625 17.66796875 C-0.3826416 16.84578857 -0.3512207 16.0236084 -0.31884766 15.17651367 C0 13 0 13 2 10 C2.66 10 3.32 10 4 10 C3.91902776 13.58425201 3.80619302 17.16681439 3.6875 20.75 C3.65366211 22.27367187 3.65366211 22.27367187 3.61914062 23.828125 C3.58369141 24.8078125 3.54824219 25.7875 3.51171875 26.796875 C3.48553467 27.69760742 3.45935059 28.59833984 3.43237305 29.52636719 C2.92173587 32.44775391 2.03614408 33.86622628 0 36 C-2.79722236 36.48951391 -4.25882884 36.50224828 -6.63134766 34.89453125 C-8.67951478 32.05939446 -8.38884529 29.71415749 -8.3984375 26.25 C-8.40130768 25.59547852 -8.40417786 24.94095703 -8.40713501 24.26660156 C-8.40917368 22.88475681 -8.40365746 21.50288307 -8.39111328 20.12109375 C-8.37505436 18.0071555 -8.39096601 15.89512887 -8.41015625 13.78125 C-8.40817378 12.43749578 -8.40433002 11.09374276 -8.3984375 9.75 C-8.39505371 8.52796875 -8.39166992 7.3059375 -8.38818359 6.046875 C-8 3 -8 3 -6.64306641 1.08984375 C-4.38169129 -0.41012334 -2.65150531 -0.21498692 0 0 Z " fill="#28578F" transform="translate(507,461)"/>
<path d="M0 0 C2.71499506 2.71499506 3.7444795 5.9267505 5.125 9.4375 C5.40214844 10.11876953 5.67929687 10.80003906 5.96484375 11.50195312 C7.14842926 14.47840831 8 16.76799028 8 20 C2.72 20 -2.56 20 -8 20 C-5.83836487 13.06001352 -3.1063786 6.56882431 0 0 Z " fill="#0E427E" transform="translate(338,460)"/>
<path d="M0 0 C4.26212308 1.6850254 5.57091284 5.15495447 7.6875 9.0625 C8.15800781 9.8978125 8.62851562 10.733125 9.11328125 11.59375 C10.31999606 13.74204228 11.51008115 15.89805343 12.6875 18.0625 C13.24179687 16.93070312 13.79609375 15.79890625 14.3671875 14.6328125 C15.0987463 13.15093697 15.83052878 11.66917185 16.5625 10.1875 C16.92730469 9.44113281 17.29210937 8.69476563 17.66796875 7.92578125 C18.02246094 7.21035156 18.37695312 6.49492187 18.7421875 5.7578125 C19.06687012 5.09797363 19.39155273 4.43813477 19.72607422 3.75830078 C20.6875 2.0625 20.6875 2.0625 22.6875 0.0625 C25.98464793 0.39221479 27.3101839 0.6851839 29.6875 3.0625 C29.33376043 7.0420702 28.29475491 10.41938886 26.6875 14.0625 C25.5625 12.4375 25.5625 12.4375 24.6875 10.0625 C25.5625 6.8125 25.5625 6.8125 26.6875 4.0625 C25.3675 3.4025 24.0475 2.7425 22.6875 2.0625 C22.30464844 3.28839844 22.30464844 3.28839844 21.9140625 4.5390625 C20.49768303 8.6077704 18.81244047 12.50369073 17.0625 16.4375 C16.73765625 17.17355469 16.4128125 17.90960938 16.078125 18.66796875 C15.28365497 20.46720969 14.48591229 22.26500496 13.6875 24.0625 C13.0275 24.0625 12.3675 24.0625 11.6875 24.0625 C10.20456418 21.29366804 8.72681138 18.5221027 7.25 15.75 C6.82912109 14.96431641 6.40824219 14.17863281 5.97460938 13.36914062 C5.57177734 12.61181641 5.16894531 11.85449219 4.75390625 11.07421875 C4.1961853 10.02947388 4.1961853 10.02947388 3.62719727 8.96362305 C2.6875 7.0625 2.6875 7.0625 1.6875 4.0625 C0.0375 4.0625 -1.6125 4.0625 -3.3125 4.0625 C-3.6425 3.0725 -3.9725 2.0825 -4.3125 1.0625 C-2.3125 0.0625 -2.3125 0.0625 0 0 Z " fill="#14457F" transform="translate(580.3125,460.9375)"/>
<path d="M0 0 C1.65 0 3.3 0 5 0 C5 9.9 5 19.8 5 30 C3.68 30.33 2.36 30.66 1 31 C0 30 0 30 -0.11352539 27.13256836 C-0.10828857 25.88096924 -0.10305176 24.62937012 -0.09765625 23.33984375 C-0.0962413 22.67537735 -0.09482635 22.01091095 -0.09336853 21.3263092 C-0.08775518 19.19666101 -0.07520054 17.06711661 -0.0625 14.9375 C-0.05748671 13.49674631 -0.05292351 12.05599097 -0.04882812 10.61523438 C-0.03778145 7.07678898 -0.02050792 3.53840461 0 0 Z " fill="#498FE1" transform="translate(485,464)"/>
<path d="M0 0 C3.06471302 1.65023009 5.30778907 3.056076 7.375 5.875 C8.23855538 8.81108828 8.36658209 10.94514926 8 14 C5.96006092 17.6578218 4.49580738 19.66946174 1 22 C-3.99273591 22.46229036 -6.99990685 22.08578614 -11 19 C-13.68121076 14.97818385 -13.81344335 11.72763609 -13 7 C-9.86643769 1.37356655 -6.34578459 -0.6101716 0 0 Z M-9.5 5.125 C-11.29052649 8.55684244 -11.70056777 10.18579767 -11 14 C-8.65945491 17.71733632 -7.35321372 19.68988852 -3 20.6875 C1.11224846 19.74510973 2.56584727 18.43645091 5 15 C5.8876276 11.10215706 5.59158203 7.98597004 3.5 4.5 C-1.09795733 1.7412256 -5.36522433 1.61044068 -9.5 5.125 Z " fill="#0A3F7D" transform="translate(462,468)"/>
<path d="M0 0 C1.67542976 0.28604898 3.34385343 0.61781233 5 1 C5 2.65 5 4.3 5 6 C8.3 6 11.6 6 15 6 C15 4.35 15 2.7 15 1 C16.65 0.67 18.3 0.34 20 0 C19.67 4.95 19.34 9.9 19 15 C18.01 15 17.02 15 16 15 C15.67 12.69 15.34 10.38 15 8 C11.37 8 7.74 8 4 8 C4 10.31 4 12.62 4 15 C3.01 15.33 2.02 15.66 1 16 C1 12.7 1 9.4 1 6 C0.34 6 -0.32 6 -1 6 C-1.042721 4.33388095 -1.04063832 2.66617115 -1 1 C-0.67 0.67 -0.34 0.34 0 0 Z " fill="#717273" transform="translate(246,444)"/>
<path d="M0 0 C2.875 2.5 2.875 2.5 5 5 C5.33 5.33 5.66 5.66 6 6 C6.38443027 10.99759352 6.10625602 14.00624226 3 18 C0.52738476 20.56092293 -0.80684849 20.97138496 -4.375 21.5 C-8.00787191 20.99891422 -10.13924834 20.2318134 -12.828125 17.6875 C-15.11982274 14.38745525 -15.42179367 10.92752135 -15 7 C-13.40493086 3.75078508 -12.00727589 1.79887398 -9.1875 -0.4375 C-5.781792 -1.31325348 -3.38719708 -0.89136765 0 0 Z M-10.5 3.5 C-12.59401202 6.99002003 -12.87901716 10.09839751 -12 14 C-10.1235883 17.21013047 -10.1235883 17.21013047 -7 19 C-2.68807302 19.15129568 -0.78533156 18.70478473 2.4375 15.8125 C4.30215998 12.45611204 4.6303761 10.7822566 4 7 C2.65884601 3.99020117 2.65884601 3.99020117 0 2 C-3.99893269 1.05762857 -6.98105682 1.38863409 -10.5 3.5 Z " fill="#0A3E7B" transform="translate(384,469)"/>
<path d="M0 0 C2.99826328 1.52016154 5.0896003 3.22472021 7 6 C8.17232123 10.93319068 7.76532627 14.7068625 5.1875 19.0625 C2.34482492 21.58029792 0.38178874 21.95757903 -3.375 22.375 C-7 22 -7 22 -9.875 19.625 C-12.79487564 16.0180948 -13.39359353 13.80196153 -13.359375 9.10546875 C-12.72418186 5.38406547 -10.66020984 3.59687151 -8 1 C-5.04206277 -0.47896861 -3.29779776 -0.4355582 0 0 Z M-9.5 5.125 C-11.23895776 8.45800237 -11.47353317 10.29065683 -11 14 C-9.79293121 17.34265205 -9.07943151 17.94704566 -6 20 C-1.96378195 20.61420709 -0.47888959 20.34355123 2.875 17.9375 C5.51938231 14.28203034 5.56308865 12.424268 5 8 C3.98263229 5.23857335 3.63829259 4.31914629 1 3 C-4.77563123 2.28803806 -4.77563123 2.28803806 -9.5 5.125 Z " fill="#0F417D" transform="translate(423,468)"/>
<path d="M0 0 C3.96 0 7.92 0 12 0 C12.09765625 7.71484375 12.09765625 7.71484375 12 10 C11 11 11 11 8.49609375 11.09765625 C5.6640625 11.06510417 2.83203125 11.03255208 0 11 C0 7.37 0 3.74 0 0 Z " fill="#1EB5C6" transform="translate(259,489)"/>
<path d="M0 0 C3.96 0 7.92 0 12 0 C12 3.63 12 7.26 12 11 C3.50390625 11.09765625 3.50390625 11.09765625 1 11 C0 10 0 10 -0.09765625 7.71484375 C-0.06510417 5.14322917 -0.03255208 2.57161458 0 0 Z " fill="#1FB5C6" transform="translate(242,489)"/>
<path d="M0 0 C3.96 0 7.92 0 12 0 C12.09765625 7.71484375 12.09765625 7.71484375 12 10 C11 11 11 11 8.75 11.1328125 C7.8425 11.13023437 6.935 11.12765625 6 11.125 C4.63875 11.12886719 4.63875 11.12886719 3.25 11.1328125 C1 11 1 11 0 10 C-0.14257189 6.66381769 -0.04228157 3.34024394 0 0 Z " fill="#62C6E0" transform="translate(259,472)"/>
<path d="M0 0 C0.33 0 0.66 0 1 0 C1.09911689 5.87153231 1.17158611 11.74257413 1.21972656 17.61474609 C1.23980169 19.61092618 1.26706789 21.60704775 1.30175781 23.60302734 C1.35045657 26.4776862 1.37300986 29.3515654 1.390625 32.2265625 C1.41127014 33.11429352 1.43191528 34.00202454 1.45318604 34.91665649 C1.45517325 40.44448836 0.74470446 43.64752071 -3 48 C-6.52617644 50.35078429 -7.95164881 50.24370599 -12.1237793 50.22705078 C-13.38486008 50.22689972 -14.64594086 50.22674866 -15.94523621 50.22659302 C-17.32156532 50.21637976 -18.69789283 50.20594777 -20.07421875 50.1953125 C-21.48240458 50.19158172 -22.890593 50.18873506 -24.29878235 50.18673706 C-28.0027281 50.17910564 -31.70651668 50.15946148 -35.41040039 50.1373291 C-39.19089634 50.11686003 -42.97141772 50.10773308 -46.75195312 50.09765625 C-54.16804036 50.07621504 -61.58399814 50.04208513 -69 50 C-69 49.67 -69 49.34 -69 49 C-68.24689041 48.99635437 -67.49378082 48.99270874 -66.71784973 48.98895264 C-59.61123848 48.9510441 -52.50508951 48.89415946 -45.39882374 48.81609726 C-41.74560087 48.7766323 -38.09261867 48.74443941 -34.43920898 48.72900391 C-30.91165001 48.71383023 -27.3847527 48.67937382 -23.85748863 48.63169098 C-21.86072728 48.60969117 -19.86377925 48.60752687 -17.86689758 48.60565186 C-16.64600937 48.58593323 -15.42512115 48.5662146 -14.16723633 48.54589844 C-13.09468094 48.53701599 -12.02212555 48.52813354 -10.91706848 48.51898193 C-7.25753102 47.86790575 -5.62403253 46.59630311 -3 44 C-1.21711117 41.25219178 -0.74282491 39.12211216 -0.68115234 35.87402344 C-0.66128265 35.07349548 -0.64141296 34.27296753 -0.62094116 33.44818115 C-0.60938995 32.59387512 -0.59783875 31.73956909 -0.5859375 30.859375 C-0.56657135 29.97719299 -0.5472052 29.09501099 -0.5272522 28.18609619 C-0.46757152 25.37416184 -0.42111717 22.5621863 -0.375 19.75 C-0.33680962 17.84112819 -0.29775727 15.93227341 -0.2578125 14.0234375 C-0.16187942 9.34909704 -0.07780584 4.67467591 0 0 Z " fill="#050607" transform="translate(295,461)"/>
<path d="M0 0 C3.63 0 7.26 0 11 0 C11 3.63 11 7.26 11 11 C7.37 11 3.74 11 0 11 C0 7.37 0 3.74 0 0 Z " fill="#16B2C4" transform="translate(276,489)"/>
<path d="M0 0 C3.63 0 7.26 0 11 0 C11 3.63 11 7.26 11 11 C7.37 11 3.74 11 0 11 C0 7.37 0 3.74 0 0 Z " fill="#16B2C4" transform="translate(226,489)"/>
<path d="M0 0 C3.63 0 7.26 0 11 0 C11 3.3 11 6.6 11 10 C7.37 10 3.74 10 0 10 C0 6.7 0 3.4 0 0 Z " fill="#5AC3DF" transform="translate(276,472)"/>
<path d="M0 0 C3.63 0 7.26 0 11 0 C11 3.3 11 6.6 11 10 C7.37 10 3.74 10 0 10 C0 6.7 0 3.4 0 0 Z " fill="#5AC2DF" transform="translate(226,472)"/>
<path d="M0 0 C2.31 0 4.62 0 7 0 C7 0.66 7 1.32 7 2 C5.35 2 3.7 2 2 2 C2.33 6.62 2.66 11.24 3 16 C4.134375 16.309375 5.26875 16.61875 6.4375 16.9375 C10 18 10 18 11 19 C10.6875 22.5 10.6875 22.5 10 26 C6.89046621 27.5547669 4.43733239 27.28644437 1 27 C-4.56701031 24.11340206 -4.56701031 24.11340206 -5.875 20.75 C-5.91625 20.1725 -5.9575 19.595 -6 19 C-5.34 19 -4.68 19 -4 19 C-3.2575 19.825 -2.515 20.65 -1.75 21.5 C0.79364102 24.31484288 0.79364102 24.31484288 4.3125 24.3125 C5.199375 24.209375 6.08625 24.10625 7 24 C7.33 22.68 7.66 21.36 8 20 C6.2984375 19.566875 6.2984375 19.566875 4.5625 19.125 C3.386875 18.75375 2.21125 18.3825 1 18 C-0.59412284 14.81175432 -0.10174735 11.37103338 -0.0625 7.875 C-0.05798828 7.12089844 -0.05347656 6.36679687 -0.04882812 5.58984375 C-0.03703499 3.72652873 -0.01909942 1.86325445 0 0 Z " fill="#0A3D79" transform="translate(548,470)"/>
<path d="M0 0 C3.5 0.25 3.5 0.25 5.5 2.25 C5.8125 5.75 5.8125 5.75 5.5 9.25 C2.5 11.25 2.5 11.25 -1.125 10.9375 C-4.5 10.25 -4.5 10.25 -5.5 9.25 C-5.6875 5.8125 -5.6875 5.8125 -5.5 2.25 C-3.5 0.25 -3.5 0.25 0 0 Z " fill="#184881" transform="translate(487.5,448.75)"/>
<path d="M0 0 C4.7074462 3.31660982 8.18262079 6.70851025 9.625 12.375 C9.66625 13.220625 9.7075 14.06625 9.75 14.9375 C9.09 14.9375 8.43 14.9375 7.75 14.9375 C7.40388672 14.14085937 7.40388672 14.14085937 7.05078125 13.328125 C4.5918769 8.00211875 2.14354066 4.63427033 -3.25 1.9375 C-9.07026258 1.09223365 -13.6485035 1.8058557 -18.51953125 5.16015625 C-21.72149727 8.44885724 -22.97176119 12.60662508 -24.25 16.9375 C-24.58 16.9375 -24.91 16.9375 -25.25 16.9375 C-25.84678329 12.1632337 -25.44460953 9.6525759 -22.625 5.6875 C-16.55862073 -1.59215512 -8.85687448 -2.89551666 0 0 Z " fill="#16467F" transform="translate(428.25,462.0625)"/>
<path d="M0 0 C1.53445094 3.06890187 0.54984289 5.70094266 0 9 C1.32 8.67 2.64 8.34 4 8 C5.32 5.36 6.64 2.72 8 0 C14.93 0 21.86 0 29 0 C29 1.65 29 3.3 29 5 C28.34 4.34 27.68 3.68 27 3 C25.06742145 2.63168919 25.06742145 2.63168919 22.8671875 2.5859375 C22.06152344 2.54726563 21.25585938 2.50859375 20.42578125 2.46875 C19.58402344 2.4378125 18.74226563 2.406875 17.875 2.375 C17.02550781 2.33632813 16.17601562 2.29765625 15.30078125 2.2578125 C13.20088316 2.16343506 11.10047109 2.08062414 9 2 C8.69707031 3.11503906 8.39414062 4.23007812 8.08203125 5.37890625 C6.59104331 10.36860236 6.59104331 10.36860236 4 12 C1.4375 12.3125 1.4375 12.3125 -1 12 C-3 10 -3 10 -3.3125 6.5625 C-3 3 -3 3 -1.5 1.0625 C-1.005 0.711875 -0.51 0.36125 0 0 Z " fill="#12437D" transform="translate(320,485)"/>
<path d="M0 0 C0.33 0.99 0.66 1.98 1 3 C-5.42540984 9.78237705 -5.42540984 9.78237705 -10.7265625 10.23046875 C-11.68304688 10.21628906 -12.63953125 10.20210938 -13.625 10.1875 C-15.06746094 10.17783203 -15.06746094 10.17783203 -16.5390625 10.16796875 C-19 10 -19 10 -21 9 C-21.33 12.96 -21.66 16.92 -22 21 C-22.99 20.67 -23.98 20.34 -25 20 C-25 14.39 -25 8.78 -25 3 C-21.535 4.98 -21.535 4.98 -18 7 C-13.76978454 7.84737754 -10.12337168 7.4992763 -6.1875 5.75 C-3.95382639 3.96306111 -1.94877498 2.09312868 0 0 Z " fill="#285B98" transform="translate(394,487)"/>
<path d="M0 0 C0.33 0 0.66 0 1 0 C1 3.3 1 6.6 1 10 C-0.65 10.33 -2.3 10.66 -4 11 C-4.33 11.99 -4.66 12.98 -5 14 C-3.35 14 -1.7 14 0 14 C0.33 20.6 0.66 27.2 1 34 C0.01 34.495 0.01 34.495 -1 35 C-2.59412284 31.81175432 -2.10174735 28.37103338 -2.0625 24.875 C-2.05798828 24.12089844 -2.05347656 23.36679687 -2.04882812 22.58984375 C-2.03703499 20.72652873 -2.01909942 18.86325445 -2 17 C-3.32 16.67 -4.64 16.34 -6 16 C-6.625 12.625 -6.625 12.625 -7 9 C-6.34 8.34 -5.68 7.68 -5 7 C-2 8 -2 8 0 9 C0 6.03 0 3.06 0 0 Z " fill="#14447D" transform="translate(542,455)"/>
<path d="M0 0 C0.33 0 0.66 0 1 0 C1 1.65 1 3.3 1 5 C4.96 5 8.92 5 13 5 C13 8.3 13 11.6 13 15 C13.66 14.67 14.32 14.34 15 14 C15.40729228 11.67843403 15.74438677 9.3431213 16 7 C16.33 7 16.66 7 17 7 C17 9.64 17 12.28 17 15 C15.34385343 15.38218767 13.67542976 15.71395102 12 16 C11 15 11 15 10.90234375 13.15234375 C10.95117188 10.07617188 10.95117188 10.07617188 11 7 C7.7 7 4.4 7 1 7 C1 9.97 1 12.94 1 16 C-0.65 15.67 -2.3 15.34 -4 15 C-4 12.03 -4 9.06 -4 6 C-3.67 6 -3.34 6 -3 6 C-2.67 8.64 -2.34 11.28 -2 14 C-1.67 14 -1.34 14 -1 14 C-0.67 9.38 -0.34 4.76 0 0 Z " fill="#111A1C" transform="translate(234,445)"/>
<path d="M0 0 C3.3 0 6.6 0 10 0 C10 2.64 10 5.28 10 8 C6.7 8 3.4 8 0 8 C0 5.36 0 2.72 0 0 Z " fill="#3DB8D0" transform="translate(251,452)"/>
<path d="M0 0 C3.75257718 -0.34907695 5.56588078 -0.27011863 8.8125 1.75 C11 4 11 4 12 8 C8.04 8 4.08 8 0 8 C0 5.36 0 2.72 0 0 Z " fill="#3DB9D1" transform="translate(282,452)"/>
<path d="M0 0 C1.32 0.33 2.64 0.66 4 1 C3.67 5.62 3.34 10.24 3 15 C2.01 15 1.02 15 0 15 C-0.33 12.69 -0.66 10.38 -1 8 C-5.7963081 8.71435205 -5.7963081 8.71435205 -9.35546875 11.69140625 C-10.32087881 13.41659751 -11.16943988 15.20599015 -12 17 C-12.75 15.3125 -12.75 15.3125 -13 13 C-10.83579881 9.63346481 -8.82490852 7.3148123 -5 6 C-3.68 6 -2.36 6 -1 6 C-1.020625 5.195625 -1.04125 4.39125 -1.0625 3.5625 C-1 1 -1 1 0 0 Z " fill="#6E6F70" transform="translate(231,444)"/>
<path d="M0 0 C4.57995671 1.77981567 7.35319939 3.98937405 10 8.125 C11 11 11 11 11 14 C10.01 13.67 9.02 13.34 8 13 C7.5875 11.88625 7.175 10.7725 6.75 9.625 C5.45344651 6.3363461 5.03961774 6.02361827 1.75 4.0625 C-4.44935966 2.30601476 -9.02146028 2.66691133 -15 5 C-15.33 4.34 -15.66 3.68 -16 3 C-16.99 2.34 -17.98 1.68 -19 1 C-17.88625 1.020625 -16.7725 1.04125 -15.625 1.0625 C-10.18791738 0.9687572 -5.7086902 -0.73337918 0 0 Z " fill="#194A83" transform="translate(522,461)"/>
<path d="M0 0 C-0.33 0.99 -0.66 1.98 -1 3 C-2.32 3 -3.64 3 -5 3 C-5 12.57 -5 22.14 -5 32 C-6.485 32.495 -6.485 32.495 -8 33 C-8.07419134 28.78250781 -8.1286204 24.56536189 -8.16479492 20.34741211 C-8.17987589 18.91277448 -8.2003438 17.47818292 -8.22631836 16.04370117 C-8.26273437 13.98084141 -8.27973243 11.91859142 -8.29296875 9.85546875 C-8.3086792 8.61434326 -8.32438965 7.37321777 -8.34057617 6.09448242 C-8 3 -8 3 -6.6496582 1.08325195 C-4.38329383 -0.40496156 -2.65029886 -0.2148891 0 0 Z " fill="#3968A1" transform="translate(507,461)"/>
<path d="M0 0 C-0.33 0.99 -0.66 1.98 -1 3 C-2.32 3 -3.64 3 -5 3 C-5 12.57 -5 22.14 -5 32 C-6.485 32.495 -6.485 32.495 -8 33 C-8.07419134 28.78250781 -8.1286204 24.56536189 -8.16479492 20.34741211 C-8.17987589 18.91277448 -8.2003438 17.47818292 -8.22631836 16.04370117 C-8.26273437 13.98084141 -8.27973243 11.91859142 -8.29296875 9.85546875 C-8.3086792 8.61434326 -8.32438965 7.37321777 -8.34057617 6.09448242 C-8 3 -8 3 -6.6496582 1.08325195 C-4.38329383 -0.40496156 -2.65029886 -0.2148891 0 0 Z " fill="#3F6CA2" transform="translate(490,461)"/>
<path d="M0 0 C2.97 0 5.94 0 9 0 C9 2.64 9 5.28 9 8 C6.03 8 3.06 8 0 8 C0 5.36 0 2.72 0 0 Z " fill="#3CBBD4" transform="translate(267,452)"/>
<path d="M0 0 C2.97 0 5.94 0 9 0 C9 2.64 9 5.28 9 8 C6.03 8 3.06 8 0 8 C0 5.36 0 2.72 0 0 Z " fill="#3CBBD4" transform="translate(236,452)"/>
<path d="M0 0 C0 2.64 0 5.28 0 8 C-3.63 8 -7.26 8 -11 8 C-8.52259855 1.80649638 -6.80602727 -0.56716894 0 0 Z " fill="#3EB6CE" transform="translate(230,452)"/>
<path d="M0 0 C0.33 0 0.66 0 1 0 C1.33 10.56 1.66 21.12 2 32 C3.65 31.67 5.3 31.34 7 31 C7.33 27.04 7.66 23.08 8 19 C8.33 19 8.66 19 9 19 C9.08075665 21.29109597 9.13907731 23.58299267 9.1875 25.875 C9.22230469 27.15117187 9.25710938 28.42734375 9.29296875 29.7421875 C9.19628906 30.81726563 9.09960938 31.89234375 9 33 C6 35 6 35 3.375 34.6875 C1 34 1 34 0 33 C-0.08843793 30.55169574 -0.11528752 28.13179401 -0.09765625 25.68359375 C-0.0962413 24.95253922 -0.09482635 24.22148468 -0.09336853 23.46827698 C-0.08775408 21.12464368 -0.07519922 18.78110461 -0.0625 16.4375 C-0.05748686 14.85221492 -0.05292363 13.26692834 -0.04882812 11.68164062 C-0.03777997 7.7877239 -0.02050572 3.89387795 0 0 Z " fill="#0B3D78" transform="translate(362,476)"/>
<path d="M0 0 C2.34914492 2.34914492 2.73140357 3.95679446 3.625 7.125 C3.88539063 8.03507812 4.14578125 8.94515625 4.4140625 9.8828125 C4.70410156 10.93082031 4.70410156 10.93082031 5 12 C1.7 12 -1.6 12 -5 12 C-4.35758106 10.186287 -3.71096881 8.37405876 -3.0625 6.5625 C-2.70285156 5.55316406 -2.34320313 4.54382813 -1.97265625 3.50390625 C-1 1 -1 1 0 0 Z " fill="#F0F3F6" transform="translate(338,466)"/>
<path d="M0 0 C5.28557366 -0.50338797 7.90950339 0.65323004 12 4 C14.33921485 7.18983843 14.41327207 10.11524253 14 14 C12.5 15.875 12.5 15.875 11 17 C10 15 10 15 10.125 11.0625 C10.14128393 7.93366445 10.14128393 7.93366445 9 5.0625 C5.78963377 3.35699294 2.60700273 3.29565596 -1 3 C-0.67 2.01 -0.34 1.02 0 0 Z " fill="#1B4D89" transform="translate(456,468)"/>
<path d="M0 0 C1.65 0.33 3.3 0.66 5 1 C4.67 5.62 4.34 10.24 4 15 C3.01 15.33 2.02 15.66 1 16 C1 12.7 1 9.4 1 6 C0.34 6 -0.32 6 -1 6 C-1.042721 4.33388095 -1.04063832 2.66617115 -1 1 C-0.67 0.67 -0.34 0.34 0 0 Z " fill="#8A8A8A" transform="translate(277,444)"/>
<path d="M0 0 C1.65 0.33 3.3 0.66 5 1 C4.67 5.62 4.34 10.24 4 15 C3.01 15.33 2.02 15.66 1 16 C1 12.7 1 9.4 1 6 C0.34 6 -0.32 6 -1 6 C-1.042721 4.33388095 -1.04063832 2.66617115 -1 1 C-0.67 0.67 -0.34 0.34 0 0 Z " fill="#8A8A8A" transform="translate(246,444)"/>
<path d="M0 0 C2.5 1.375 2.5 1.375 5 4 C5.99689085 8.88558903 5.73242842 12.76244852 3.1875 17.0625 C-0.64453312 20.45658648 -4.07693918 20.09288794 -9 20 C-9 19.01 -9 18.02 -9 17 C-7.9275 17.0825 -6.855 17.165 -5.75 17.25 C-2.04585977 17.30594118 -2.04585977 17.30594118 0.4375 15.4375 C2.590908 12.07818353 2.40700718 9.93440277 2 6 C1.08885464 2.67813829 1.08885464 2.67813829 0 0 Z " fill="#073C7B" transform="translate(425,470)"/>
<path d="M0 0 C0 0.99 0 1.98 0 3 C-0.56589844 3.12117188 -1.13179688 3.24234375 -1.71484375 3.3671875 C-2.81505859 3.61855469 -2.81505859 3.61855469 -3.9375 3.875 C-5.03384766 4.11863281 -5.03384766 4.11863281 -6.15234375 4.3671875 C-8.20700294 4.82961523 -8.20700294 4.82961523 -9 7 C-9.06950541 8.54023996 -9.08452357 10.08334988 -9.0625 11.625 C-9.05347656 12.44226563 -9.04445313 13.25953125 -9.03515625 14.1015625 C-9.02355469 14.72804688 -9.01195312 15.35453125 -9 16 C-9.99 16.33 -10.98 16.66 -12 17 C-12.98197481 12.19686235 -13.52594376 9.07136691 -11.3125 4.5625 C-7.68699636 0.54505002 -5.37815499 -0.29878639 0 0 Z " fill="#1D4F8A" transform="translate(382,468)"/>
<path d="M0 0 C0.66 0.99 1.32 1.98 2 3 C3.75 5.25 3.75 5.25 6 7 C8.66834966 7.33498301 8.66834966 7.33498301 11 7 C11 5.68 11 4.36 11 3 C11 2.34 11 1.68 11 1 C11.99 1 12.98 1 14 1 C15.32 6.4 15.32 6.4 14 8.875 C10.85714559 10.64285561 8.53751934 10.42694199 5 10 C2.08643891 8.22652803 0.43180436 7.04866774 -0.875 3.875 C-1 2 -1 2 0 0 Z " fill="#12447F" transform="translate(563,487)"/>
<path d="M0 0 C5.73509619 -0.50307861 9.01133895 -0.17092881 13.5234375 3.52734375 C17.43843475 7.43198386 18.15734271 11.02962071 18.1875 16.375 C18.13973295 17.91719346 18.08221346 19.45925884 18 21 C17.67 21 17.34 21 17 21 C16.90203125 20.34773438 16.8040625 19.69546875 16.703125 19.0234375 C15.76650739 13.54906907 14.99308352 9.0904758 11 5 C7.41969809 3.34675813 3.78133252 2.1083216 0 1 C0 0.67 0 0.34 0 0 Z " fill="#0E417C" transform="translate(379,462)"/>
<path d="M0 0 C1.32 0.33 2.64 0.66 4 1 C3.74438677 3.3431213 3.40729228 5.67843403 3 8 C-0.10953379 9.5547669 -2.56266761 9.28644437 -6 9 C-11.56701031 6.11340206 -11.56701031 6.11340206 -12.875 2.75 C-12.91625 2.1725 -12.9575 1.595 -13 1 C-12.34 1 -11.68 1 -11 1 C-10.2575 1.825 -9.515 2.65 -8.75 3.5 C-6.20635898 6.31484288 -6.20635898 6.31484288 -2.6875 6.3125 C-1.800625 6.209375 -0.91375 6.10625 0 6 C1.01111093 2.95086772 1.01111093 2.95086772 0 0 Z " fill="#10417C" transform="translate(555,488)"/>
<path d="M0 0 C0.33 0 0.66 0 1 0 C1 2.64 1 5.28 1 8 C6.28 8 11.56 8 17 8 C16 10 16 10 14.375 10.625 C10.04585224 11.30854965 5.68267478 11.01157076 1.3125 10.9375 C-1.38205289 10.98834062 -3.45858843 11.1867483 -6 12 C-5.34 11.67 -4.68 11.34 -4 11 C-4 10.34 -4 9.68 -4 9 C-2.68 9 -1.36 9 0 9 C0 6.03 0 3.06 0 0 Z " fill="#24A6BA" transform="translate(266,452)"/>
<path d="M0 0 C0.33 0 0.66 0 1 0 C1 2.64 1 5.28 1 8 C6.28 8 11.56 8 17 8 C16.67 8.66 16.34 9.32 16 10 C13.9609375 10.4140625 13.9609375 10.4140625 11.375 10.625 C10.47265625 10.69976562 9.5703125 10.77453125 8.640625 10.8515625 C5.42501273 11.03232177 2.2199586 11 -1 11 C-3.31036915 11.42854995 -3.31036915 11.42854995 -5 12 C-4.67 11.01 -4.34 10.02 -4 9 C-2.68 9 -1.36 9 0 9 C0 6.03 0 3.06 0 0 Z " fill="#24A6BA" transform="translate(235,452)"/>
<path d="M0 0 C6.93 0 13.86 0 21 0 C21 1.65 21 3.3 21 5 C20.34 4.34 19.68 3.68 19 3 C16.86747907 2.72285104 16.86747907 2.72285104 14.4296875 2.8046875 C13.53378906 2.81113281 12.63789063 2.81757813 11.71484375 2.82421875 C10.30912109 2.84935547 10.30912109 2.84935547 8.875 2.875 C7.45767578 2.88853516 7.45767578 2.88853516 6.01171875 2.90234375 C3.67422708 2.92595478 1.33723877 2.95888484 -1 3 C-0.67 2.01 -0.34 1.02 0 0 Z " fill="#033774" transform="translate(328,485)"/>
<path d="M0 0 C3.96 0 7.92 0 12 0 C11.67 1.32 11.34 2.64 11 4 C7.37 4 3.74 4 0 4 C0 2.68 0 1.36 0 0 Z " fill="#20B2C7" transform="translate(219,460)"/>
<path d="M0 0 C0.33 0.99 0.66 1.98 1 3 C-5.43003026 9.78725416 -5.43003026 9.78725416 -10.359375 10.1953125 C-11.54273438 10.16050781 -11.54273438 10.16050781 -12.75 10.125 C-13.54921875 10.10695313 -14.3484375 10.08890625 -15.171875 10.0703125 C-15.77515625 10.04710937 -16.3784375 10.02390625 -17 10 C-17.33 9.34 -17.66 8.68 -18 8 C-17.20335937 7.92523438 -16.40671875 7.85046875 -15.5859375 7.7734375 C-8.28256762 6.86717992 -4.57870232 5.85056408 0 0 Z " fill="#0C407C" transform="translate(394,487)"/>
<path d="M0 0 C4.54239804 -0.31326883 7.1111075 -0.42735216 11.25 1.5625 C14.5939522 4.52645763 16.12687121 6.9540418 18 11 C17.67 11.66 17.34 12.32 17 13 C14.99099243 11.09672967 13.49170264 9.28240373 11.875 7 C8.7478953 3.13201203 4.6857262 2.16377513 0 1 C0 0.67 0 0.34 0 0 Z " fill="#1A4B86" transform="translate(459,462)"/>
<path d="M0 0 C2.5 0.125 2.5 0.125 3.5 1.125 C3.625 3.625 3.625 3.625 3.5 6.125 C2.5 7.125 2.5 7.125 0 7.25 C-2.5 7.125 -2.5 7.125 -3.5 6.125 C-3.625 3.625 -3.625 3.625 -3.5 1.125 C-2.5 0.125 -2.5 0.125 0 0 Z " fill="#468BDC" transform="translate(487.5,450.875)"/>
<path d="M0 0 C-0.556875 0.391875 -1.11375 0.78375 -1.6875 1.1875 C-7.36825611 5.63998452 -9.81756474 9.2229642 -12 16 C-12.33 16 -12.66 16 -13 16 C-13.60775408 11.13796733 -13.1653883 8.69432764 -10.25 4.6875 C-7.25450373 0.83722828 -4.9370049 -1.6456683 0 0 Z " fill="#0E417D" transform="translate(416,463)"/>
<path d="M0 0 C0.33 0 0.66 0 1 0 C1.33 9.24 1.66 18.48 2 28 C3.32 28.66 4.64 29.32 6 30 C6 30.66 6 31.32 6 32 C1.125 31.125 1.125 31.125 0 30 C-0.08783542 27.78144736 -0.10694609 25.56011504 -0.09765625 23.33984375 C-0.0962413 22.67537735 -0.09482635 22.01091095 -0.09336853 21.3263092 C-0.08775518 19.19666101 -0.07520054 17.06711661 -0.0625 14.9375 C-0.05748671 13.49674631 -0.05292351 12.05599097 -0.04882812 10.61523438 C-0.03778145 7.07678898 -0.02050792 3.53840461 0 0 Z " fill="#023673" transform="translate(500,465)"/>
<path d="M0 0 C2.8899704 -0.44461083 4.38813841 -0.38751234 6.875 1.1875 C8 3 8 3 7.8125 5.625 C7 8 7 8 5 9 C2.6599583 8.71758117 0.32495277 8.38749213 -2 8 C-2 7.67 -2 7.34 -2 7 C1.465 6.505 1.465 6.505 5 6 C5 5.34 5 4.68 5 4 C2.69 3.67 0.38 3.34 -2 3 C-1.34 2.01 -0.68 1.02 0 0 Z " fill="#1D4F8C" transform="translate(550,462)"/>
<path d="M0 0 C3.29714793 0.32971479 4.6226839 0.6226839 7 3 C6.64626043 6.9795702 5.60725491 10.35688886 4 14 C2.875 12.375 2.875 12.375 2 10 C2.875 6.75 2.875 6.75 4 4 C3.071875 3.7834375 3.071875 3.7834375 2.125 3.5625 C0 3 0 3 -2 2 C-1.34 1.34 -0.68 0.68 0 0 Z " fill="#1B4B83" transform="translate(603,461)"/>
<path d="M0 0 C0.99 0.33 1.98 0.66 3 1 C2.72285156 1.59167969 2.44570313 2.18335938 2.16015625 2.79296875 C-0.55774153 8.69046431 -0.55774153 8.69046431 -2 15 C-2.99 15 -3.98 15 -5 15 C-4.43174347 9.45949887 -2.37113483 4.96284034 0 0 Z " fill="#1A4B85" transform="translate(587,493)"/>
<path d="M0 0 C0.99 0.33 1.98 0.66 3 1 C3 1.99 3 2.98 3 4 C-2.28 4 -7.56 4 -13 4 C-13 3.34 -13 2.68 -13 2 C-9.79984144 0.93328048 -8.11455706 1.05154528 -4.8125 1.4375 C-3.46091797 1.59025391 -3.46091797 1.59025391 -2.08203125 1.74609375 C-1.39496094 1.82988281 -0.70789063 1.91367187 0 2 C0 1.34 0 0.68 0 0 Z " fill="#033774" transform="translate(343,476)"/>
<path d="M0 0 C2.97 0 5.94 0 9 0 C9 1.32 9 2.64 9 4 C6.03 4 3.06 4 0 4 C0 2.68 0 1.36 0 0 Z " fill="#58C2DE" transform="translate(267,452)"/>
<path d="M0 0 C2.97 0 5.94 0 9 0 C9 1.32 9 2.64 9 4 C6.03 4 3.06 4 0 4 C0 2.68 0 1.36 0 0 Z " fill="#58C2DE" transform="translate(251,452)"/>
<path d="M0 0 C2.97 0 5.94 0 9 0 C9 1.32 9 2.64 9 4 C6.03 4 3.06 4 0 4 C0 2.68 0 1.36 0 0 Z " fill="#58C2DE" transform="translate(236,452)"/>
<path d="M0 0 C2.75 -0.25 2.75 -0.25 6 0 C8.375 2 8.375 2 10 4 C6.7 4 3.4 4 0 4 C0 2.68 0 1.36 0 0 Z " fill="#5ABDD7" transform="translate(282,452)"/>
<path d="M0 0 C0.66 0 1.32 0 2 0 C0.54997977 4.10839064 -1.3979134 7.50344613 -4 11 C-4.66 11 -5.32 11 -6 11 C-9 6.61538462 -9 6.61538462 -9 4 C-8.34 4 -7.68 4 -7 4 C-6.67 5.32 -6.34 6.64 -6 8 C-3.33264727 5.51047079 -1.44253657 3.36591866 0 0 Z " fill="#252627" transform="translate(252,471)"/>
<path d="M0 0 C1.54571278 2.31856917 2.79618552 4.50638429 4 7 C5.65 7 7.3 7 9 7 C8.67 7.99 8.34 8.98 8 10 C5.6875 10.25 5.6875 10.25 3 10 C0.34684029 7.62130509 0.01896655 6.32875347 -0.1875 2.75 C-0.125625 1.8425 -0.06375 0.935 0 0 Z " fill="#10427E" transform="translate(349,487)"/>
<path d="M0 0 C0 3 0 3 -1.5625 4.6875 C-4.80631168 6.43416783 -7.37343285 6.20922503 -11 6 C-11 5.01 -11 4.02 -11 3 C-10.113125 3.061875 -9.22625 3.12375 -8.3125 3.1875 C-4.65514983 2.98048018 -2.95222849 2.083926 0 0 Z " fill="#073B79" transform="translate(467,484)"/>
<path d="M0 0 C1.62463842 -0.05395478 3.24978541 -0.09277195 4.875 -0.125 C5.77992188 -0.14820313 6.68484375 -0.17140625 7.6171875 -0.1953125 C10 0 10 0 12 2 C11.67 2.99 11.34 3.98 11 5 C10.34 4.34 9.68 3.68 9 3 C6.78927023 2.75746187 6.78927023 2.75746187 4.375 2.875 C3.14910156 2.90207031 3.14910156 2.90207031 1.8984375 2.9296875 C0.95871094 2.96449219 0.95871094 2.96449219 0 3 C0 2.01 0 1.02 0 0 Z " fill="#15467F" transform="translate(511,469)"/>
<path d="M0 0 C0 1.32 0 2.64 0 4 C-2.97 4.66 -5.94 5.32 -9 6 C-5.61538462 0 -5.61538462 0 0 0 Z " fill="#58BAD2" transform="translate(229,452)"/>
<path d="M0 0 C2.5625 0.875 2.5625 0.875 4.375 3.4375 C4.766875 4.241875 5.15875 5.04625 5.5625 5.875 C4.5725 6.205 3.5825 6.535 2.5625 6.875 C2.2325 5.885 1.9025 4.895 1.5625 3.875 C-0.0875 3.875 -1.7375 3.875 -3.4375 3.875 C-3.7675 2.885 -4.0975 1.895 -4.4375 0.875 C-2.4375 -0.125 -2.4375 -0.125 0 0 Z " fill="#21518A" transform="translate(580.4375,461.125)"/>
<path d="M0 0 C0.3690205 9.41002278 0.3690205 9.41002278 -2 14 C-3.8587516 10.8758675 -4.20151847 8.90682466 -3.75 5.3125 C-3.66234375 4.52488281 -3.5746875 3.73726563 -3.484375 2.92578125 C-3.32453125 2.29027344 -3.1646875 1.65476562 -3 1 C-1 0 -1 0 0 0 Z " fill="#3F6B9E" transform="translate(398,475)"/>
<path d="M0 0 C3.46941546 0.45822468 6.67395049 0.89131683 10 2 C8.8125 3.5625 8.8125 3.5625 7 5 C4.4375 4.9375 4.4375 4.9375 2 4 C0.6875 1.9375 0.6875 1.9375 0 0 Z " fill="#215088" transform="translate(402,506)"/>
<path d="M0 0 C0.66 0 1.32 0 2 0 C0.76697292 4.93210831 -0.71960878 7.21774571 -5 10 C-5.66 10 -6.32 10 -7 10 C-7 9.34 -7 8.68 -7 8 C-6.21625 7.38125 -5.4325 6.7625 -4.625 6.125 C-2.13770844 4.11147826 -1.14461734 2.91357141 0 0 Z " fill="#343535" transform="translate(294,501)"/>
<path d="M0 0 C1.4540625 0.0309375 1.4540625 0.0309375 2.9375 0.0625 C3.5975 1.3825 4.2575 2.7025 4.9375 4.0625 C3.844375 3.85625 2.75125 3.65 1.625 3.4375 C-2.1463401 2.65903475 -2.1463401 2.65903475 -5.0625 5.0625 C-3.9375 0.08035714 -3.9375 0.08035714 0 0 Z " fill="#16467E" transform="translate(566.0625,447.9375)"/>
<path d="M0 0 C0.33 0 0.66 0 1 0 C1 3.3 1 6.6 1 10 C-1.64 10.33 -4.28 10.66 -7 11 C-6.34 9.68 -5.68 8.36 -5 7 C-2 8 -2 8 0 9 C0 6.03 0 3.06 0 0 Z " fill="#3369A9" transform="translate(542,455)"/>
<path d="M0 0 C2.12508244 3.18762365 2.5020163 5.26512223 3 9 C2.01 9 1.02 9 0 9 C-0.87890625 2.84765625 -0.87890625 2.84765625 -1 1 C-0.67 0.67 -0.34 0.34 0 0 Z " fill="#225289" transform="translate(357,485)"/>
<path d="M0 0 C0.66 0 1.32 0 2 0 C6 6.625 6 6.625 6 10 C5.34 10 4.68 10 4 10 C3.32845067 8.71086513 2.66291141 7.41859796 2 6.125 C1.62875 5.40570313 1.2575 4.68640625 0.875 3.9453125 C0 2 0 2 0 0 Z " fill="#083C7A" transform="translate(584,483)"/>
<path d="M0 0 C0.66 0 1.32 0 2 0 C2.1875 2.875 2.1875 2.875 2 6 C-1 8 -1 8 -5 8 C-5 7.34 -5 6.68 -5 6 C-3.68 5.67 -2.36 5.34 -1 5 C-0.67 3.35 -0.34 1.7 0 0 Z " fill="#0E407C" transform="translate(491,452)"/>
<path d="M0 0 C0.5775 0.763125 1.155 1.52625 1.75 2.3125 C3.83357198 5.00891579 3.83357198 5.00891579 6.25 6.6875 C6.8275 7.120625 7.405 7.55375 8 8 C8 8.66 8 9.32 8 10 C4.12539202 8.74337038 2.0139745 7.60395437 0 4 C0 2.68 0 1.36 0 0 Z " fill="#2F3030" transform="translate(218,501)"/>
<path d="M0 0 C1.32 0.33 2.64 0.66 4 1 C3.67 3.31 3.34 5.62 3 8 C2.01 8.33 1.02 8.66 0 9 C0.185625 7.88625 0.37125 6.7725 0.5625 5.625 C1.31680657 2.17431139 1.31680657 2.17431139 0 0 Z " fill="#1A4A82" transform="translate(555,488)"/>
<path d="M0 0 C5.75 -0.125 5.75 -0.125 8 1 C7.67 1.99 7.34 2.98 7 4 C4.69 3.34 2.38 2.68 0 2 C0 1.34 0 0.68 0 0 Z " fill="#21538E" transform="translate(417,468)"/>
<path d="M0 0 C1.65 1.65 3.3 3.3 5 5 C4.67 5.99 4.34 6.98 4 8 C2.35 6.35 0.7 4.7 -1 3 C-0.67 2.01 -0.34 1.02 0 0 Z " fill="#184B87" transform="translate(450,481)"/>
<path d="M0 0 C3 1 3 1 4.1875 3.375 C5 6 5 6 5 9 C4.34 9 3.68 9 3 9 C2.01 6.03 1.02 3.06 0 0 Z " fill="#11437E" transform="translate(352,477)"/>
<path d="M0 0 C2.5625 1.5625 2.5625 1.5625 5 4 C4.8125 7.75 4.8125 7.75 4 11 C3.67 11 3.34 11 3 11 C2.01 7.37 1.02 3.74 0 0 Z " fill="#14457E" transform="translate(425,470)"/>
<path d="M0 0 C2.97 0 5.94 0 9 0 C9.33 0.66 9.66 1.32 10 2 C8.02 2.66 6.04 3.32 4 4 C3.67 3.34 3.34 2.68 3 2 C2.01 1.34 1.02 0.68 0 0 Z " fill="#083B78" transform="translate(503,462)"/>
<path d="M0 0 C0.66 0.66 1.32 1.32 2 2 C-1.625 6.875 -1.625 6.875 -5 8 C-5.33 7.34 -5.66 6.68 -6 6 C-5.195625 5.38125 -4.39125 4.7625 -3.5625 4.125 C-0.96125481 2.25835959 -0.96125481 2.25835959 0 0 Z " fill="#15467F" transform="translate(473,487)"/>
<path d="M0 0 C0.33 0.66 0.66 1.32 1 2 C-2.63 2 -6.26 2 -10 2 C-7.80708619 -2.38582763 -4.17201316 -0.83440263 0 0 Z " fill="#44BDD7" transform="translate(286,480)"/>
<path d="M0 0 C2.0625 0.4375 2.0625 0.4375 4 1 C4 1.66 4 2.32 4 3 C0.37 3 -3.26 3 -7 3 C-6.67 2.34 -6.34 1.68 -6 1 C-4.7934375 1.0309375 -4.7934375 1.0309375 -3.5625 1.0625 C-1.06645115 1.29633621 -1.06645115 1.29633621 0 0 Z " fill="#44BDD7" transform="translate(233,479)"/>
<path d="M0 0 C0.33 1.32 0.66 2.64 1 4 C2.65 4 4.3 4 6 4 C5.01 5.485 5.01 5.485 4 7 C2.68 6.67 1.36 6.34 0 6 C-0.38218767 4.34385343 -0.71395102 2.67542976 -1 1 C-0.67 0.67 -0.34 0.34 0 0 Z " fill="#1D4D87" transform="translate(536,465)"/>
<path d="M0 0 C2.97 0 5.94 0 9 0 C8.01 1.485 8.01 1.485 7 3 C4.69 2.67 2.38 2.34 0 2 C0 1.34 0 0.68 0 0 Z " fill="#17467E" transform="translate(524,494)"/>
<path d="M0 0 C0.66 0 1.32 0 2 0 C3.76462683 3.08809695 4 4.23312136 4 8 C3.34 8 2.68 8 2 8 C0.74335022 5.09399739 0 3.20395416 0 0 Z " fill="#265387" transform="translate(434,469)"/>
<path d="M0 0 C7.50769231 -0.36923077 7.50769231 -0.36923077 10 1.5 C10.495 2.2425 10.495 2.2425 11 3 C9 4 9 4 6.8359375 3.44140625 C6.02382813 3.15136719 5.21171875 2.86132812 4.375 2.5625 C3.55773437 2.27503906 2.74046875 1.98757813 1.8984375 1.69140625 C1.27195312 1.46324219 0.64546875 1.23507812 0 1 C0 0.67 0 0.34 0 0 Z " fill="#0D3F7A" transform="translate(459,462)"/>
</svg>
